<?xml version="1.0" encoding="UTF-8" standalone="no"?>
<svg
   xmlns:dc="http://purl.org/dc/elements/1.1/"
   xmlns:cc="http://creativecommons.org/ns#"
   xmlns:rdf="http://www.w3.org/1999/02/22-rdf-syntax-ns#"
   xmlns:svg="http://www.w3.org/2000/svg"
   xmlns="http://www.w3.org/2000/svg"
   id="svg4"
   xml:space="preserve"
   viewBox="0 0 1024 768"
   y="0px"
   x="0px"
   version="1.1"><metadata
     id="metadata10"><rdf:RDF><cc:Work
         rdf:about=""><dc:format>image/svg+xml</dc:format><dc:type
           rdf:resource="http://purl.org/dc/dcmitype/StillImage" /></cc:Work></rdf:RDF></metadata><defs
     id="defs8" /><path
     id="path2"
     d="m578.82 237.08c-0.5-0.02-0.9 0.01-1.22 0.06-0.26 0.05-0.63 0.15-0.84 0.22s-0.58 0.23-0.83 0.36-0.6 0.35-0.78 0.49c-0.18 0.15-20.01 20.43-44.05 45.08l-43.73 44.81-0.1-0.37c-0.06-0.2-0.19-0.6-0.3-0.88-0.1-0.28-0.32-0.79-0.48-1.13-0.17-0.34-0.48-0.87-0.69-1.19-0.21-0.31-0.54-0.77-0.74-1.01-0.19-0.24-0.67-0.76-1.07-1.15-0.39-0.39-0.93-0.9-1.19-1.11-0.27-0.21-0.77-0.57-1.11-0.8-0.35-0.23-0.99-0.59-1.42-0.8s-1.06-0.48-1.39-0.59c-0.34-0.12-0.92-0.28-1.29-0.36-0.38-0.09-0.99-0.19-1.35-0.23-0.38-0.04-0.99-0.05-1.45-0.03-0.43 0.02-1.02 0.08-1.32 0.13-0.29 0.05-0.79 0.18-1.1 0.28s-0.74 0.26-0.96 0.36-0.61 0.31-0.88 0.47-0.69 0.47-0.94 0.68c-0.25 0.2-6.75 5.98-14.45 12.84-8.72 7.76-14.11 12.61-14.3 12.85-0.17 0.21-0.41 0.54-0.53 0.72s-0.34 0.56-0.48 0.84-0.33 0.71-0.42 0.96-0.23 0.72-0.31 1.05c-0.08 0.34-0.18 0.97-0.22 1.42-0.05 0.62-0.05 1.02 0 1.64 0.04 0.44 0.14 1.13 0.23 1.52 0.08 0.4 0.25 1 0.36 1.35 0.12 0.35 0.39 0.99 0.6 1.42s0.56 1.06 0.79 1.41 0.62 0.88 0.87 1.17c0.25 0.3 0.72 0.8 1.05 1.12s0.86 0.76 1.17 1c0.32 0.24 0.83 0.59 1.14 0.78 0.32 0.19 0.85 0.47 1.18 0.63s0.84 0.37 1.13 0.47c0.3 0.1 0.8 0.25 1.12 0.33 0.31 0.08 0.78 0.18 1.03 0.23 0.28 0.05 0.9 0.08 1.65 0.08 0.91 0 1.34-0.03 1.75-0.11 0.29-0.06 0.79-0.19 1.1-0.29 0.32-0.1 0.78-0.28 1.03-0.39 0.25-0.12 0.71-0.38 1.03-0.6 0.36-0.23 1.39-1.1 2.65-2.22 1.14-1.02 2.11-1.86 2.14-1.88 0.04-0.01 3.32 0.83 7.29 1.87 3.96 1.04 9.41 2.48 12.11 3.19s9.48 2.5 15.08 3.98c5.59 1.47 10.44 2.76 10.77 2.86s1.06 0.27 1.63 0.39c0.56 0.11 1.33 0.25 1.71 0.3 0.39 0.06 1.36 0.11 2.21 0.13 0.97 0.03 1.83 0.01 2.38-0.04 0.47-0.04 1.25-0.13 1.73-0.21s1.21-0.23 1.61-0.33c0.41-0.1 1.12-0.3 1.58-0.46 0.46-0.15 1.17-0.4 1.56-0.57 0.4-0.16 1.07-0.47 1.51-0.68 0.43-0.22 1.07-0.57 1.43-0.78s0.94-0.6 1.31-0.85c0.36-0.25 0.99-0.72 1.38-1.04 0.4-0.32 1.13-0.99 1.63-1.49 0.5-0.49 1.14-1.18 1.43-1.53s0.74-0.93 1-1.3c0.26-0.36 0.7-1.03 0.97-1.47 0.27-0.45 0.67-1.19 0.9-1.66 0.23-0.46 0.55-1.18 0.71-1.59 0.17-0.42 0.38-1.02 0.49-1.34 0.1-0.33 0.27-0.91 0.37-1.31 0.1-0.39 0.23-1 0.3-1.36 0.06-0.36 0.16-0.98 0.21-1.38 0.06-0.4 0.11-1.35 0.13-2.11 0.02-0.85 0-1.74-0.04-2.28-0.04-0.49-0.13-1.29-0.21-1.8-0.08-0.5-1.56-10.64-3.29-22.54l-3.14-21.63 1.15-1.15c0.62-0.63 12.32-12.51 25.98-26.4 13.67-13.88 25.58-25.99 26.48-26.9 1.16-1.17 1.73-1.79 1.94-2.12 0.17-0.25 0.39-0.67 0.5-0.93s0.25-0.71 0.31-1.01 0.11-0.77 0.11-1.04c0-0.28-0.04-0.71-0.09-0.96-0.06-0.25-0.17-0.64-0.25-0.86-0.08-0.21-0.27-0.58-0.41-0.82-0.15-0.24-0.43-0.59-0.62-0.79s-0.54-0.49-0.79-0.65c-0.24-0.15-0.62-0.36-0.84-0.46s-0.66-0.25-0.97-0.33c-0.41-0.11-0.78-0.16-1.33-0.17v-0.01zm-83.02 34.5c-0.5-0.02-1.23-0.01-1.62 0.02-0.4 0.03-1.02 0.1-1.39 0.15-0.36 0.05-0.96 0.16-1.33 0.24-0.36 0.08-0.98 0.24-1.38 0.36s-1.03 0.34-1.41 0.49-1.1 0.48-1.6 0.74c-0.5 0.25-1.27 0.7-1.72 1-0.44 0.3-1.08 0.76-1.41 1.02-0.33 0.27-0.97 0.85-1.42 1.29-0.44 0.45-1.05 1.12-1.34 1.48-0.29 0.37-0.73 0.96-0.97 1.32-0.24 0.37-0.62 0.99-0.83 1.39-0.22 0.4-0.54 1.05-0.71 1.44-0.17 0.4-0.43 1.08-0.57 1.51s-0.33 1.06-0.41 1.41c-0.09 0.35-0.21 0.97-0.28 1.38-0.06 0.41-0.15 1.12-0.19 1.57-0.04 0.47-0.05 1.27-0.03 1.9 0.02 0.59 0.08 1.4 0.13 1.8 0.05 0.39 0.16 1.04 0.25 1.43 0.08 0.4 0.24 1.04 0.35 1.43 0.12 0.39 0.36 1.07 0.53 1.51 0.18 0.45 0.48 1.11 0.66 1.48 0.19 0.37 0.5 0.92 0.68 1.23 0.19 0.31 0.49 0.78 0.68 1.04 0.18 0.26 0.52 0.71 0.75 0.99 0.23 0.29 0.6 0.71 0.82 0.94s0.68 0.69 1.03 1.02c0.35 0.32 0.9 0.79 1.22 1.04s0.9 0.65 1.29 0.9c0.38 0.24 1.09 0.64 1.57 0.89 0.49 0.24 1.2 0.57 1.59 0.72s1.06 0.38 1.5 0.51c0.45 0.13 1.09 0.29 1.44 0.36 0.34 0.07 0.91 0.17 1.26 0.22s1.23 0.11 1.95 0.13c1.02 0.03 1.56 0.01 2.3-0.06 0.54-0.06 1.36-0.18 1.82-0.28 0.46-0.09 1.17-0.27 1.58-0.39 0.4-0.12 1.05-0.34 1.43-0.49 0.39-0.16 1.05-0.45 1.47-0.67 0.43-0.21 1.02-0.54 1.33-0.72 0.3-0.19 0.72-0.46 0.94-0.61 0.21-0.15 0.65-0.48 0.96-0.73 0.32-0.24 0.92-0.78 1.34-1.2 0.43-0.42 1-1.02 1.27-1.35s0.66-0.83 0.87-1.11c0.2-0.29 0.57-0.86 0.82-1.28s0.6-1.07 0.78-1.45c0.17-0.37 0.43-0.97 0.57-1.33 0.14-0.35 0.34-0.96 0.46-1.35 0.11-0.4 0.27-1.04 0.35-1.44 0.08-0.39 0.19-1.05 0.25-1.47 0.05-0.41 0.11-1.13 0.13-1.59 0.02-0.49 0.01-1.26-0.03-1.84-0.04-0.54-0.13-1.31-0.19-1.7-0.07-0.39-0.19-0.99-0.27-1.33s-0.24-0.93-0.36-1.31c-0.12-0.37-0.34-0.98-0.49-1.34s-0.44-1-0.66-1.42c-0.21-0.41-0.56-1.04-0.78-1.39-0.22-0.34-0.62-0.93-0.9-1.29-0.27-0.36-0.78-0.97-1.13-1.35-0.34-0.38-0.91-0.94-1.24-1.24-0.34-0.29-0.92-0.77-1.3-1.05-0.37-0.28-1.03-0.72-1.45-0.98-0.43-0.25-1.14-0.63-1.59-0.85-0.45-0.21-1.15-0.51-1.57-0.66-0.41-0.15-1.06-0.35-1.44-0.45s-0.95-0.24-1.27-0.3c-0.31-0.07-0.93-0.16-1.38-0.21-0.44-0.05-1.22-0.11-1.71-0.12zm33.06 107.46c-0.37 0-0.88 0.03-1.13 0.06-0.25 0.02-0.73 0.1-1.08 0.17-0.34 0.07-0.94 0.23-1.34 0.36-0.39 0.14-0.97 0.36-1.27 0.51-0.31 0.15-0.78 0.4-1.06 0.57-0.27 0.17-0.7 0.46-0.95 0.65-0.25 0.18-0.67 0.54-0.94 0.79-0.26 0.25-0.68 0.7-0.92 0.99-0.25 0.29-0.58 0.73-0.75 0.98-0.17 0.24-0.45 0.72-0.63 1.06-0.17 0.34-0.42 0.87-0.54 1.17s-0.29 0.86-0.39 1.24c-0.1 0.37-0.22 0.99-0.28 1.37-0.08 0.54-0.09 0.95-0.07 1.9 0.03 0.96 0.07 1.34 0.19 1.92 0.08 0.4 0.26 1.05 0.4 1.45 0.14 0.39 0.37 0.96 0.51 1.26s0.41 0.79 0.6 1.08c0.19 0.3 0.5 0.74 0.68 0.99 0.19 0.24 0.57 0.68 0.85 0.97 0.29 0.28 0.69 0.66 0.91 0.84 0.21 0.18 0.67 0.51 1.02 0.74s0.93 0.56 1.3 0.74c0.36 0.17 0.95 0.42 1.3 0.53 0.36 0.13 0.97 0.29 1.36 0.37s1.07 0.17 1.5 0.21c0.48 0.03 1.11 0.03 1.61 0 0.45-0.04 1.09-0.11 1.41-0.18 0.33-0.06 0.82-0.19 1.1-0.27s0.82-0.28 1.2-0.44 0.95-0.44 1.27-0.63c0.33-0.19 0.86-0.55 1.18-0.79 0.32-0.25 0.85-0.71 1.17-1.04 0.32-0.32 0.71-0.74 0.86-0.93s0.42-0.57 0.61-0.85c0.18-0.27 0.51-0.85 0.72-1.28s0.48-1.07 0.59-1.41c0.11-0.35 0.26-0.89 0.33-1.21 0.06-0.31 0.15-0.83 0.18-1.15 0.04-0.33 0.07-0.91 0.07-1.31s-0.04-1.04-0.1-1.43c-0.05-0.39-0.15-0.97-0.23-1.28-0.08-0.32-0.23-0.82-0.34-1.12-0.1-0.3-0.32-0.81-0.48-1.15s-0.51-0.93-0.77-1.32c-0.27-0.4-0.71-0.97-0.98-1.29-0.28-0.31-0.74-0.77-1.02-1.01s-0.8-0.64-1.17-0.89c-0.36-0.24-0.96-0.59-1.32-0.77-0.37-0.18-0.99-0.44-1.39-0.57-0.39-0.13-0.99-0.3-1.32-0.36-0.33-0.07-0.87-0.15-1.19-0.19-0.32-0.03-0.89-0.06-1.26-0.05zm-78.32 0.02c-0.56-0.01-1.23 0-1.47 0.03-0.25 0.03-0.73 0.11-1.07 0.18s-0.9 0.22-1.26 0.33c-0.36 0.12-0.99 0.38-1.4 0.58-0.41 0.19-1 0.52-1.32 0.73s-0.83 0.59-1.13 0.85c-0.31 0.25-0.73 0.66-0.96 0.9-0.22 0.24-0.58 0.67-0.81 0.97-0.22 0.3-0.54 0.78-0.71 1.06s-0.43 0.79-0.57 1.11c-0.15 0.33-0.35 0.86-0.45 1.18-0.1 0.31-0.23 0.75-0.28 0.98-0.05 0.22-0.13 0.71-0.18 1.09-0.05 0.39-0.1 1.05-0.1 1.48 0 0.42 0.05 1.08 0.1 1.47 0.05 0.38 0.17 1 0.27 1.38 0.09 0.38 0.27 0.94 0.38 1.24 0.12 0.3 0.35 0.81 0.52 1.14s0.46 0.82 0.64 1.1c0.18 0.27 0.48 0.67 0.65 0.89 0.18 0.21 0.58 0.64 0.89 0.95s0.83 0.76 1.15 1c0.33 0.24 0.88 0.6 1.23 0.8 0.36 0.2 0.94 0.49 1.31 0.64 0.36 0.15 0.92 0.34 1.23 0.42 0.32 0.09 0.79 0.2 1.05 0.25 0.27 0.05 0.85 0.12 1.29 0.15 0.48 0.03 1.11 0.03 1.57 0 0.43-0.03 1.07-0.11 1.42-0.18 0.36-0.07 0.97-0.23 1.35-0.36 0.38-0.12 0.95-0.35 1.26-0.49 0.32-0.15 0.79-0.4 1.06-0.56 0.26-0.16 0.74-0.49 1.05-0.72 0.32-0.23 0.84-0.7 1.18-1.03 0.33-0.34 0.75-0.81 0.94-1.06 0.18-0.24 0.49-0.69 0.68-0.99 0.19-0.29 0.46-0.78 0.6-1.09 0.15-0.3 0.36-0.83 0.48-1.17s0.27-0.84 0.34-1.11c0.06-0.27 0.16-0.77 0.2-1.12 0.05-0.34 0.09-1.05 0.09-1.58 0-0.55-0.03-1.22-0.09-1.59-0.05-0.35-0.17-0.95-0.27-1.32-0.1-0.38-0.27-0.94-0.39-1.24s-0.37-0.83-0.54-1.17c-0.18-0.34-0.46-0.82-0.63-1.06-0.17-0.25-0.5-0.69-0.74-0.98-0.25-0.29-0.67-0.74-0.94-0.99-0.27-0.26-0.73-0.64-1.02-0.86-0.29-0.21-0.81-0.55-1.16-0.75-0.35-0.21-0.93-0.49-1.29-0.64-0.36-0.14-0.9-0.33-1.2-0.42-0.3-0.08-0.85-0.21-1.23-0.28-0.46-0.08-1.05-0.13-1.72-0.14zm-203.61 50.38c-0.33-0.02-0.66-0.01-0.95 0.02-1.94 0.22-3.18 0.94-4.16 1.47l-0.08 0.04-0.06 0.05c-0.91 0.63-1.78 1.21-2.62 1.94-3.28 2.71-5.76 5.76-8.17 8.73v0.01l-0.01 0.01c-4.77 6.07-9.16 12.33-13.17 18.77-4.01 6.43-7.74 13.06-11.01 19.98-1.69 3.36-3.28 6.82-4.78 10.38-0.76 1.8-1.41 3.59-2.06 5.35l-0.01 0.01v0.01c-0.64 1.83-1.2 3.54-1.68 5.6-0.38 1.15 0.05 2.51 1.12 3.24 1.29 0.91 3.13 0.5 4-0.72l0.01-0.01c4.22-6.05 8.97-11.72 14.34-16.64h0.01v-0.01c2.62-2.43 5.46-4.62 8.33-5.81 0.71-0.23 1.25-0.35 1.72-0.36 0.17 0.03 0.32 0.07 0.41 0.11 0 0.07 0.02 0.22 0.04 0.41v2.07c0 1.46-0.19 3.33-0.19 5.28-0.09 1.98-0.09 4.14 0.41 6.52v0.03l0.01 0.03c0.3 1.19 0.73 2.5 1.6 3.8 0.99 1.49 2.52 2.45 4.04 2.91l0.02 0.01h0.01c0.86 0.25 1.53 0.25 1.92 0.31l0.17 0.03 1.75-0.1c0.88 0 1.55-0.24 1.86-0.3l0.14-0.03 0.13-0.05c0.23-0.1 0.79-0.19 1.45-0.46 3.31-1.16 5.91-3.12 8.18-5.19 0.02 0.09 0.04 0.17 0.07 0.26l0.01 0.04 0.01 0.04c0.32 0.84 0.79 1.81 1.64 2.66l0.04 0.04 0.05 0.04c0.81 0.7 1.78 1.25 2.83 1.52l0.09 0.02 0.1 0.01c0.92 0.1 1.72 0.11 2.51 0l-0.08 0.01 1.02-0.1-0.13 0.01c0.59 0 1-0.16 1.27-0.26 2.52-0.68 4.69-1.67 6.72-2.92 1.94-1.11 3.79-2.31 5.62-3.59-1.02 3.96-1.88 8.05-2.06 12.27v0.01c-0.09 2.26-0.11 4.78 0.72 7.37v0.01l0.01 0.01c0.42 1.27 1.14 2.76 2.42 3.93 1.37 1.36 3.21 1.91 4.92 1.91 1.57 0 3.06-0.43 4.3-1.1 1.08-0.5 2.03-1.06 2.99-1.59l0.06-0.03 0.04-0.03c1.92-1.24 3.64-2.58 5.33-3.99l0.01-0.01c3.3-2.73 6.39-5.73 9.36-8.71h0.01c2.32-2.29 4.57-4.63 6.79-7 0 0.79 0.05 1.61 0.18 2.47l0.01 0.04 0.01 0.05c0.19 0.83 0.43 1.89 1.1 3.02 0.64 1.14 1.74 2.28 3.38 2.71 0.52 0.16 0.97 0.16 1.24 0.16-0.05 0 0.21 0.09 0.83 0.09h0.24l0.23-0.07s0.27 0 0.83-0.19l0.06-0.02 0.78-0.33 0.06-0.04c0.92-0.51 1.63-1.02 2.28-1.48l0.07-0.05 0.07-0.06c1.14-1.04 2.28-2.19 3.26-3.37 2.1-2.2 3.89-4.54 5.64-6.85l0.01-0.01 3.41-4.77c0.52 0.96 1.37 1.72 2.5 1.63 1.58-0.03 2.93-1.36 2.72-3.03l0.01 0.12c-0.08-1.76-0.06-3.76-0.27-5.82 3.23-4.8 6.46-9.68 9.69-14.56-0.96 2.44-2.01 4.85-2.85 7.36-1.67 4.75-3.26 9.62-4.4 14.61-0.55 2.42-1.13 4.98-1.42 7.59-0.28 2.64-0.49 5.41 0.12 8.43 0.31 1.57 0.95 3.32 2.31 4.79v0.01c1.53 1.64 3.57 2.31 5.35 2.42h0.05 0.05c1.59 0 3.14-0.21 4.62-0.73 1.42-0.41 2.76-1.02 3.98-1.83 1.82-1.12 3.42-2.43 4.86-3.84 0.23 0.31 0.53 0.58 0.91 0.81l0.01 0.01h0.01c1.31 0.75 3.09 0.36 3.88-1.01l0.19-0.34v-0.04c4-6.59 8.6-13 13.64-18.77h0.01l0.01-0.01c2.57-3.03 5.21-5.85 8.1-8.38 2.9-2.54 5.95-4.77 9.31-6.46 1.13-0.5 2.24-0.9 3.33-1.19-0.38 0.88-0.78 1.72-1.16 2.62l-2.47 5.31-0.01 0.02c-1.77 3.64-3.46 7.38-4.87 11.25-0.76 1.98-1.42 3.97-1.99 6.05l-0.01 0.02v0.03c-0.45 1.9-0.94 4.03-0.88 6.41-0.24 1.19 0.37 2.33 1.31 2.96l0.05 0.02 0.04 0.03c1.4 0.8 3.12 0.21 3.88-1.11l-0.01 0.02c1.73-2.92 3.65-5.84 5.73-8.46v-0.01l0.01-0.01c2.09-2.73 4.35-5.35 6.77-7.58 1.25-1.07 2.46-2.02 3.73-2.79 0.2-0.09 0.3-0.12 0.47-0.2-0.01 0.24-0.04 0.52-0.07 0.74l-0.83 5.08c-0.28 1.78-0.58 3.83-0.48 6.05v0.03 0.04c0.1 1.1 0.3 2.33 0.72 3.58l0.02 0.05 0.02 0.05c0.54 1.31 1.43 2.68 2.86 3.63l0.04 0.03 0.04 0.02c1.32 0.77 2.69 1.11 3.96 1.22h0.06 0.07c0.37 0 0.95 0.09 1.73-0.02 0.64-0.02 1.18-0.1 1.66-0.18l0.08-0.02 0.07-0.02c2.27-0.62 4.13-1.76 5.64-3.06 2.06-1.56 3.83-3.34 5.45-5.18 0.31 0.8 0.77 1.69 1.56 2.48l0.04 0.04 0.05 0.04c0.81 0.7 1.77 1.25 2.83 1.52l0.09 0.02 0.1 0.01c0.92 0.1 1.72 0.11 2.51 0l-0.08 0.01 1.02-0.1-0.13 0.01c0.59 0 1-0.16 1.27-0.26 2.53-0.68 4.7-1.67 6.73-2.93 1.27-0.72 2.5-1.49 3.71-2.29-0.13 0.74-0.21 1.52-0.22 2.33-0.21 1.02 0.21 2.12 0.98 2.77 1.18 1.09 3.08 0.91 4.05-0.34 4.96-5.97 10.36-11.56 16.4-16.5 2.91-2.36 6.06-4.59 9.3-6.09 1.32-0.51 2.53-0.85 3.42-0.93-0.01 0.02-0.01 0.04-0.02 0.06v0.01l-2.02 4.87c-0.74 1.76-1.49 3.53-2.24 5.51l-0.01 0.02-0.01 0.02c-0.64 1.83-1.43 3.88-1.82 6.37l-0.01 0.06-0.01 0.06c-0.08 0.94-0.37 2.67 0.46 4.67 0.28 0.94 0.82 1.34 1.17 1.69l0.08 0.08 0.08 0.06c0.36 0.27 0.82 0.67 1.6 0.88 1.02 0.32 1.9 0.34 2.54 0.34h0.03 0.03c2.62-0.1 4.98-1.04 6.98-2.24 0.79-0.43 1.52-0.92 2.21-1.44 0.02 0.64 0.06 1.29 0.17 1.97l0.01 0.04 0.01 0.05c0.18 0.83 0.42 1.89 1.09 3.02 0.64 1.14 1.74 2.28 3.38 2.71 0.52 0.16 0.98 0.16 1.24 0.16-0.05 0 0.22 0.09 0.84 0.09h0.24l0.22-0.07s0.28 0 0.84-0.19l0.06-0.02 0.77-0.33 0.07-0.04c0.92-0.51 1.63-1.02 2.28-1.48l0.07-0.05 0.07-0.06c1.13-1.04 2.28-2.19 3.26-3.37 2.1-2.2 3.88-4.54 5.63-6.85l0.02-0.01 3.41-4.77c0.52 0.96 1.37 1.72 2.5 1.63 1.58-0.03 2.92-1.36 2.71-3.03l0.01 0.12c-0.08-1.76-0.05-3.76-0.26-5.82 3.23-4.81 6.46-9.68 9.69-14.56-0.97 2.44-2.01 4.85-2.85 7.36-1.68 4.75-3.27 9.62-4.4 14.61-0.56 2.42-1.13 4.98-1.42 7.59-0.28 2.64-0.49 5.41 0.11 8.43 0.32 1.57 0.96 3.32 2.32 4.79v0.01c1.52 1.64 3.57 2.31 5.35 2.42h0.05 0.04c1.59 0 3.15-0.2 4.63-0.73 1.42-0.41 2.75-1.02 3.98-1.83 4.73-2.91 7.96-7.08 10.9-11.11 1.16 0.74 2.38 0.95 3.32 1.05 0.92 0.09 1.92 0.2 2.97 0.09 1.9-0.11 3.67-0.5 5.3-0.98 1.69-0.5 3.23-1.18 4.72-1.83l0.02-0.01 0.03-0.01c0.04-0.02 0.08-0.04 0.11-0.06-0.04 0.22-0.09 0.44-0.13 0.65-0.32 1.15 0.07 2.57 1.16 3.3l0.05 0.03 0.04 0.02c1.36 0.78 3.13 0.45 3.97-1.01l-0.03 0.05c2.62-4.16 5.61-8.23 8.85-11.94 0.8-0.62 1.6-1.24 2.4-1.88l0.06-0.05 0.15-0.15c0.5-0.46 0.77-1.05 0.84-1.65 0.59-0.6 1.2-1.18 1.81-1.73l0.03-0.03 0.03-0.03c1.66-1.66 3.61-3.16 5.53-4.3 0.97-0.53 1.94-0.92 2.42-0.92 0.14 0 0.24 0.03 0.27 0.03l0.11 0.06 0.05 0.11 0.02 0.02c0.2 0.43 0.6 1.37 1.15 2.39 0.07 0.18 0.16 0.37 0.24 0.55-0.65 1.18-1.28 2.37-1.88 3.57v0.01c-2.45 4.6-4.61 9.5-6.22 14.62l-0.01 0.01v0.01c-0.76 2.55-1.43 5.21-1.81 8.01-0.38 2.75-0.58 5.69-0.09 8.76 0.4 3.03 1.6 6.24 3.85 8.9 2.17 2.58 5.1 4.29 8.03 5.2h0.01c2.95 0.89 5.8 1.18 8.59 1.18 1.36 0 2.81-0.1 4.18-0.29l0.02-0.01c1.46-0.19 2.79-0.48 4.09-0.75l0.04-0.01 0.04-0.02c5.25-1.43 9.99-3.61 14.59-6.15 9.12-4.89 17.36-10.97 25.36-17.3v-0.01h0.01c3.9-3.16 7.82-6.42 11.64-9.87l0.01-0.01c3.81-3.34 7.53-6.69 11.26-10.23l0.46-0.44v-0.31c0.24-0.49 0.33-1.04 0.29-1.6l0.73-0.37-1.46-1.45c-1.13-1.14-3.04-1.2-4.13 0.1l0.09-0.1-0.1 0.1v0.01c-6.91 7.09-14.38 13.73-22.14 20.01-3.84 3.11-7.88 5.96-12.04 8.82-4.14 2.77-8.27 5.33-12.65 7.62-4.38 2.18-8.89 3.98-13.43 4.87h-0.01c-2.2 0.44-4.38 0.61-6.64 0.44-2.2-0.18-4.38-0.62-6.23-1.38l-0.03-0.01-0.03-0.01c-1.75-0.64-3.19-1.75-4.23-3.11-0.95-1.36-1.59-3.04-1.76-4.9v-0.03-0.03c-0.51-4 0.43-8.54 1.8-13 1.54-4.62 3.6-9.11 5.97-13.51 0.3 0.14 0.59 0.27 0.99 0.43l0.12 0.05 1.49 0.31 0.08 0.01c0.94 0.11 1.95 0.12 2.99-0.11 2.04-0.46 3.66-1.66 4.77-2.98 1.07-1.16 1.89-2.39 2.58-3.83l0.29-0.43 0.06-0.25c0.26-1.04-0.24-1.95-0.98-2.64v-0.55l-1.12-0.28c-1.42-0.35-2.98 0.45-3.51 1.85l-0.09 0.25v0.06c-0.22 0.7-0.68 1.49-1.23 2.01-0.57 0.55-1.14 0.74-1.4 0.71l-0.08-0.01h-0.08c-0.6 0-0.73-0.09-1.05-0.47-0.08-0.1-0.16-0.21-0.25-0.35 1.23-2 2.5-3.99 3.8-5.95 5.52-8.1 11.68-15.72 18.65-22.6l0.01-0.01 0.01-0.01c3.37-3.46 7.02-6.66 10.78-9.69 1.93-1.46 3.8-2.8 5.82-3.85l0.03-0.02 0.03-0.02c1.92-1.13 4-1.99 5.99-2.32 2.01-0.33 4.05-0.16 5.19 0.67l0.02 0.02 0.03 0.01c1.13 0.75 1.83 2.37 1.84 4.21-0.09 1.93-0.75 4.03-1.83 5.86l-0.01 0.03-0.02 0.02c-0.95 1.74-2.4 3.36-4 4.61h-0.04l-0.27 0.26-0.5 0.38v0.58c-0.53 1.03-0.59 2.26 0.15 3.16l0.05 0.05 0.04 0.04c1.03 1.03 2.87 1.19 4.06 0.17l0.01-0.01 0.02-0.01c2.05-1.86 3.83-4.03 5.29-6.57l0.01-0.01v-0.01c1.4-2.49 2.31-5.32 2.41-8.36 0.1-1.58-0.1-3.27-0.75-4.88-0.65-1.65-1.75-3.07-3.16-4.15l-0.05-0.04-0.05-0.03c-1.45-0.94-3.02-1.56-4.59-1.88-1.58-0.32-3.11-0.31-4.57-0.21h-0.03l-0.04 0.01c-5.9 0.69-10.93 3.32-15.43 6.04l-0.01 0.01-0.01 0.01c-4.56 2.84-8.63 6.15-12.39 9.73-7.6 7.22-14.25 15.19-20.15 23.8-0.44 0.65-0.88 1.32-1.32 1.98-0.25-0.23-0.52-0.46-0.83-0.68l-0.05-0.03-0.05-0.04c-0.57-0.34-1.14-0.56-1.73-0.76-0.67-0.26-1.35-0.37-2.01-0.37h-0.08l-0.88 0.09c-0.19 0-0.47 0.02-0.83 0.15-0.46 0.09-0.93 0.22-1.43 0.46-1.53 0.58-2.79 1.25-3.97 1.89l-0.06 0.03-0.06 0.04c-1.58 1.06-2.87 2.32-4.21 3.53 0.11-0.18 0.23-0.4 0.35-0.58 0.84-1.19 1.42-2.82 1.16-4.74v-0.04-0.39l-0.06-0.19c-0.34-1.27-1.48-2.21-2.75-2.41-0.41-0.06-0.83-0.03-1.24 0.07-2.17 0.48-3.52 1.9-4.28 3.19-0.75 1.13-1.4 2.24-2.03 3.33-1.44 2.39-2.57 4.75-3.77 7.14v0.02l-0.01 0.02c-1.12 2.37-2.15 4.83-3.02 7.36-1.42 0.83-2.86 1.57-4.32 2.2-2.66 1.16-5.45 1.92-8.04 1.92-0.33 0-0.92-0.13-1.67-0.24-0.42-0.15-0.72-0.28-0.84-0.34l-0.02-0.11c0.22-0.38 0.46-0.76 0.68-1.14 0.82-1.35 1.55-2.73 2.26-4.12 1.2 0.12 2.43 0.08 3.6-0.35 2.15-0.67 3.75-1.96 5.11-3.32l0.04-0.04 0.04-0.04c0.6-0.7 1.18-1.48 1.69-2.29 0.62-0.93 1.22-2.14 1.34-3.71 0.13-0.94-0.04-2.12-0.76-3.24-0.7-1.22-1.78-1.86-2.85-2.17-0.45-0.21-1.07-0.41-1.75-0.41-0.79 0-1.34 0.15-1.66 0.23l-0.02 0.01-0.03 0.01c-0.67 0.19-1.34 0.4-2 0.79-1.95 1.04-3.27 2.36-4.44 3.44l-0.02 0.02-0.02 0.02c-1.26 1.26-2.42 2.61-3.49 4.07l-0.01 0.01-0.01 0.01c-1.98 2.83-3.9 5.96-4.6 10.16l-0.01 0.05-0.01 0.05c-0.07 0.68-0.15 1.59-0.01 2.62-0.33 0.5-0.66 1.01-1 1.5l-0.02 0.03-0.01 0.03c-1.22 1.91-2.74 3.7-4.29 5.43-1.61 1.62-3.27 3.09-5.13 4.19-1.77 1.01-3.74 1.62-5.33 1.47-0.59-0.05-0.89-0.23-1.19-0.57-0.32-0.46-0.59-1.02-0.74-1.9v-0.01-0.02c-0.32-1.75-0.17-4.01 0.27-6.21l0.01-0.03v-0.03c0.35-2.2 0.98-4.45 1.71-6.74l0.01-0.01v-0.01c2.74-9.15 6.7-18.09 10.69-26.99v-0.01c4.04-8.8 8.29-17.49 11.56-26.87 0.68-0.94 0.54-2.1 0.11-2.97l-0.03-0.04-0.01-0.03c-0.4-0.69-1.04-1.12-1.75-1.29h-0.01c-0.71-0.18-1.48-0.09-2.14 0.23l-0.1 0.05-0.09 0.07c-1.06 0.74-1.65 1.43-2.15 1.93l-0.06 0.06-1.42 1.8c-0.98 1.18-1.84 2.42-2.68 3.63-1.67 2.32-3.35 4.75-4.93 7.17l-9.46 14.47c-3.01 4.46-6.02 8.98-9.07 13.44-0.67-0.88-1.5-1.65-2.58-2.19-0.43-0.31-0.95-0.56-1.52-0.69-0.39-0.19-0.85-0.39-1.45-0.45-0.23-0.06-0.75-0.24-1.45-0.27-0.54-0.1-1.03-0.12-1.43-0.12-2.1 0-4.21 0.51-5.98 1.62-1.69 1.05-2.9 2.38-4.01 3.59l-0.03 0.02-0.01 0.02c-1.08 1.27-2.04 2.62-2.9 3.96l-0.04 0.05-0.02 0.06c-0.75 1.39-1.51 2.82-2.11 4.31v0.01c-0.47 1.09-0.89 2.22-1.27 3.36-0.76 0.95-1.57 1.87-2.42 2.71-2.26 2.19-5.03 3.76-7.52 3.95 0.46-1.29 1.44-3.23 2.26-4.79h0.01c0.91-1.74 1.85-3.43 2.79-5.32l0.02-0.04 0.02-0.04c0.83-1.93 1.76-4 1.97-6.78v-0.05-0.98c0-0.26 0.01-0.72-0.11-1.27l-0.01-0.04-0.1-0.63-0.22-0.67 0.04 0.18c-0.12-0.61-0.41-1.14-0.73-1.61-0.45-0.92-1.15-1.32-1.41-1.51-0.5-0.37-0.97-0.6-1.34-0.79l-0.31-0.15h-0.35c-0.12 0-0.38-0.05-0.75-0.15l-0.18-0.04h-1.29l-0.08 0.01c-2.62 0.3-4.77 1.12-6.71 2.1-3.88 1.93-7.21 4.52-10.31 7.15-0.89 0.72-1.67 1.55-2.53 2.31 0.61-1.26 1.1-2.63 1.16-4.28v-0.03-0.12c0-0.68-0.17-0.93-0.26-1.21l-0.03-0.1-0.05-0.09c-0.72-1.45-2.52-2.12-4.06-1.44l-0.01 0.01c-2.57 1.18-4.03 3.09-5.2 5.03-1.04 1.71-2.08 3.6-3.03 5.49-0.17 0.35-0.34 0.71-0.52 1.06-1.41 1.14-2.86 2.24-4.35 3.3-1.74 1.19-3.55 2.36-5.3 3.23-1.79 0.9-3.72 1.74-5.25 1.98-0.46 0.02-0.62 0.09-0.58 0.09h-0.64c-0.32 0-0.44-0.04-0.42-0.02l-0.06-0.04c-0.07-0.62 0.4-2.61 1.16-4.23l0.02-0.04 0.02-0.04c0.69-1.73 1.67-3.52 2.68-5.26 0.57-0.85 1.11-1.75 1.58-2.38l0.05-0.06 0.04-0.06c0.16-0.27 0.53-0.59 0.89-1.31l0.09-0.18 0.04-0.19c0.09-0.48 0.2-1.51-0.23-2.6l-0.27-0.88c-0.35-1.23-1.47-2.11-2.72-2.27h-0.03l-0.03-0.01c-1.41-0.12-2.59 0.25-3.37 0.88l-0.06 0.05-0.06 0.06c-0.6 0.6-1.03 1.25-1.34 1.77-0.64 1.01-1.3 2.04-1.88 3.11l-0.02 0.02-0.01 0.03c-0.94 1.88-1.82 3.88-2.42 6.07-0.77 1.14-1.57 2.26-2.41 3.32-2.09 2.63-4.33 5.11-6.82 6.93-1.29 0.85-2.62 1.47-3.63 1.61l-0.08 0.01-0.08 0.02c-0.2 0.05-0.29 0.05-0.66 0.05-0.09 0-0.45-0.04-0.77-0.07-0.39-0.12-0.68-0.27-0.88-0.4-0.06-0.09-0.28-0.8-0.21-2.1 0.17-1.3 0.6-2.82 0.98-4.53 0.46-1.65 0.93-3.33 1.31-5.23l0.02-0.07v-0.08c0.09-0.94 0.31-2.15 0.09-3.69l-0.02-0.13-0.04-0.13c0 0.01-0.12-0.45-0.3-0.91-0.14-0.51-0.38-0.98-0.69-1.41-0.35-0.65-0.79-1.06-1.14-1.41l-0.07-0.07-0.08-0.07c-0.47-0.35-1.06-0.75-1.9-0.91-1.15-0.23-2.08-0.11-2.72-0.02l-0.15 0.02-1.72 0.61h-0.01c-1.15 0.42-2.1 0.95-3 1.55-1.74 1.13-3.1 2.5-4.37 3.68l-0.02 0.02-0.03 0.03c0.36-0.69 0.71-1.39 1.07-2.08 0.96-1.82 1.8-3.68 2.71-5.5l0.01-0.03 0.01-0.03c0.82-1.81 1.84-3.83 2.25-6.5l0.02-0.11v-0.12c0-0.36 0.21-1.28-0.03-2.57-0.13-0.77-0.55-2.15-1.9-3.09-0.73-0.51-1.5-0.69-2.08-0.74s-0.99 0.03-0.99 0.03l-1.76 0.29-0.11 0.04c-0.56 0.19-1.05 0.34-1.44 0.41l-0.1 0.01-0.09 0.03c-2.15 0.66-4.2 1.34-6.21 2.44-3.85 2.02-7.19 4.69-10.2 7.51 0 0.01-0.01 0.01-0.01 0.02-2.86 2.51-5.35 5.29-7.79 7.99 0.07-0.12 0.13-0.24 0.2-0.35 1.41-2.24 2.55-4.73 3.19-7.57h0.47v-1.48c0-0.62-0.16-1.23-0.43-1.77l-0.06-0.11-0.06-0.09c-0.93-1.3-2.75-1.67-4.09-0.72-3.03 2.02-4.87 4.69-6.32 7.48-1.47 2.57-2.96 5.19-4.2 8.04-1.31 2.72-2.55 5.56-3.51 8.62l-0.01 0.04-0.01 0.04c-0.15 0.63-0.43 1.37-0.65 2.23l-0.29 1.18-0.01 0.05c-0.77 0.97-1.59 1.92-2.42 2.85-1.61 1.61-3.27 3.08-5.13 4.18-1.76 1.01-3.74 1.62-5.32 1.47-0.59-0.05-0.9-0.23-1.2-0.57-0.31-0.46-0.59-1.02-0.73-1.9l-0.01-0.01v-0.01c-0.32-1.76-0.16-4.02 0.28-6.22v-0.03l0.01-0.02c0.35-2.21 0.97-4.46 1.71-6.75v-0.01-0.01c2.75-9.15 6.71-18.09 10.69-26.99l0.01-0.01c4.03-8.8 8.28-17.48 11.55-26.86 0.68-0.94 0.54-2.11 0.11-2.98l-0.02-0.03-0.02-0.04c-0.39-0.69-1.04-1.12-1.75-1.29s-1.49-0.09-2.15 0.24l-0.1 0.05-0.09 0.06c-1.06 0.74-1.64 1.43-2.14 1.93l-0.06 0.06-1.42 1.8c-0.99 1.18-1.85 2.42-2.68 3.63-1.68 2.33-3.35 4.75-4.94 7.17l-9.46 14.47c-3 4.47-6.02 8.98-9.07 13.44-0.67-0.88-1.5-1.65-2.57-2.19-0.44-0.3-0.96-0.55-1.53-0.69-0.38-0.19-0.84-0.39-1.45-0.44-0.23-0.07-0.75-0.25-1.46-0.28-0.53-0.1-1.02-0.12-1.42-0.12-2.1 0-4.21 0.51-5.98 1.62-1.69 1.06-2.9 2.38-4.01 3.59l-0.02 0.02-0.02 0.03c-1.08 1.26-2.04 2.62-2.9 3.96l-0.03 0.05-0.03 0.05c-0.74 1.39-1.51 2.82-2.11 4.32-0.15 0.36-0.29 0.73-0.44 1.09-4.17 4.83-8.53 9.55-13.08 14.09-2.95 2.86-5.97 5.7-9.15 8.24l-0.01 0.01h-0.01c-1.51 1.25-3.13 2.42-4.76 3.51-1.57 0.95-3.43 1.68-4.22 1.63h-0.05-0.04c-0.37 0-0.62-0.13-0.81-0.31-0.18-0.18-0.5-0.74-0.73-1.42-0.38-1.37-0.41-3.25-0.23-5.09v-0.02-0.02c0.26-3.77 1.33-7.64 2.52-11.59 1.08-3.08 2.25-6.13 3.54-9.11 0.14-0.12 0.28-0.23 0.42-0.35l0.05-0.04 0.14-0.13c0.18-0.19 0.32-0.4 0.43-0.62 3.04-2 6.03-4.09 8.87-6.43l0.02-0.01 0.01-0.01c3.3-2.83 6.32-5.85 9.23-9.14 2.84-3.21 5.48-6.7 7.84-10.38l0.01-0.02v-0.01c2.22-3.6 4.39-7.38 5.76-11.7 0.57-1.27 0.76-2.58 0.93-3.56l0.01-0.03v-0.02c0.11-0.77 0.11-1.33 0.18-1.73l0.02-0.12v-0.59c0-0.25-0.03-0.67-0.15-1.09-0.19-0.83-0.62-1.39-0.89-1.75l-0.01-0.02-0.02-0.02c-1.61-1.98-3.99-2.25-5.61-2.02-0.89 0.11-1.55 0.33-2.16 0.51l-0.07 0.02-1.78 0.69-0.04 0.02c-4.65 2.17-8.07 5.62-10.76 9.26-2.75 3.51-5 7.18-7.23 10.89l-0.02 0.02-3.08 5.61v0.01c-1.03 1.96-1.97 3.84-2.91 5.8v0.01c-2.45 5.22-4.73 10.54-6.69 16.02-1.84 1.56-3.76 3.03-5.75 4.45-1.74 1.19-3.55 2.36-5.29 3.23-1.8 0.9-3.73 1.74-5.26 1.98-0.46 0.02-0.62 0.09-0.57 0.09h-0.65c-0.29 0-0.42-0.04-0.42-0.03l-0.06-0.03c-0.07-0.62 0.4-2.61 1.17-4.23l0.02-0.04 0.01-0.04c0.7-1.73 1.68-3.53 2.69-5.27 0.57-0.85 1.1-1.74 1.58-2.37l0.04-0.06 0.04-0.06c0.16-0.27 0.53-0.59 0.89-1.31l0.09-0.18 0.04-0.19c0.09-0.48 0.2-1.49-0.22-2.57v-0.01l-0.28-0.92v0.02c-0.34-1.23-1.46-2.11-2.72-2.27h-0.03l-0.03-0.01c-1.41-0.12-2.58 0.25-3.37 0.88l-0.06 0.05-0.06 0.06c-0.6 0.6-1.03 1.25-1.33 1.76v0.01c-0.65 1.01-1.31 2.04-1.89 3.11l-0.01 0.02-0.01 0.03c-1.04 2.06-2 4.27-2.59 6.71l-0.01 0.01c-0.75 0.92-1.52 1.82-2.32 2.65-2.38 2.47-5.28 4.54-8.19 5.46l-0.11 0.03-0.11 0.06c-0.02 0.01-0.08 0.03-0.54 0.03h-0.19l-0.17 0.04c-0.37 0.09-0.43 0.11-0.56 0.08l-0.14-0.03h-1.05c-0.21-0.06-0.44-0.14-0.41-0.12l-0.16-0.11-0.19-0.07s-0.12-0.16-0.22-0.32c-0.05-0.16-0.16-0.74-0.16-1.33 0-1.3 0.26-3.05 0.46-4.95 0.27-1.83 0.55-3.77 0.46-6.02 0-1.27-0.22-2.58-0.73-4v-0.01l-0.01-0.02c-0.61-1.58-1.9-3.22-3.89-3.98-1.73-0.79-3.4-0.68-4.68-0.48l-0.06 0.01-0.07 0.02c-1.12 0.28-2.24 0.58-3.34 1.12-1.98 0.9-3.74 2.07-5.29 3.33-1.64 1.26-3.07 2.59-4.45 3.88h-0.01v0.01c-0.78 0.74-1.44 1.56-2.19 2.32 0.43-0.79 0.83-1.59 1.26-2.38 3.59-6.46 7.47-12.74 11.45-18.94 4.06-6.08 8.39-12.17 12.9-17.87 2.29-2.75 4.67-5.49 7.03-7.94 0.47-0.41 0.77-0.7 1.1-1 0.19 0.7 0.55 1.34 1.27 1.77l0.11 0.07 0.13 0.05c1.37 0.52 3.05 0.04 3.7-1.41 0.71-1.34 1.1-2.79 0.88-4.43-0.1-0.82-0.44-2.26-1.7-3.31-0.93-0.91-2.06-1.27-3.06-1.33v-0.01zm638.49 0.39c-2.65 0.23-4.16 1.91-5.09 3.03l-0.02 0.02-0.02 0.03c-0.95 1.23-1.79 2.45-2.62 3.64v0.01c-0.01 0.01-0.01 0.02-0.02 0.03-1.78 2.43-3.36 4.85-4.93 7.25v0.01h-0.01c-0.3 0.46-0.47 0.74-0.66 1.04-5.54 0.81-11.09 1.7-16.56 2.77-3.17 0.56-6.4 1.21-9.4 1.66-1.62 0.19-3.15 0.46-4.6 0.54-1.36 0.09-2.85-0.05-3.48-0.28l-0.25-0.09h-0.25c-1.21-0.3-2.48 0.29-3.1 1.22l-0.03 0.04-0.02 0.04c-0.74 1.3-0.27 3.15 1.14 3.89 2.13 1.25 4.18 1.48 5.92 1.66l0.04 0.01h0.04c1.87 0.1 3.57 0 5.18 0h0.04 0.04c3.4-0.19 6.68-0.57 9.92-0.94h0.01l9.73-1.28c-0.92 1.59-1.86 3.19-2.75 4.73l-0.01 0.01-0.01 0.02c-4.32 7.92-8.48 15.93-12.06 24.32-2.35 1.58-4.75 3.07-7.19 4.4l-0.01 0.01-0.01 0.01c-3.22 1.84-6.53 3.58-9.83 5.14-3.38 1.55-6.73 2.91-10.06 3.9-1.69 0.44-3.46 0.79-4.97 0.87h-0.04l-0.03 0.01c-1.61 0.17-3.16-0.03-3.74-0.36l-0.08-0.05-0.08-0.03c-0.31-0.14-0.1 0.04-0.28-0.33-0.01-0.01-0.1-0.31-0.05-0.69 0.15-0.96 0.66-2.42 1.39-3.63l0.01-0.02 0.01-0.02c1.55-2.76 3.87-5.28 6.28-7.88 2.42-2.51 4.73-4.94 7.45-6.26h0.01l0.01-0.01c1.01-0.51 2.05-0.69 2.86-0.69v0.69c-0.61 1.27-0.22 2.73 1.04 3.51 1.28 0.88 3.1 0.49 3.97-0.73l0.05-0.07 0.04-0.08c0.61-1.12 1.37-2.8 0.99-4.79l-0.01-0.08-0.03-0.08c-0.63-2.01-2.21-3.24-3.71-3.74-1.36-0.49-2.69-0.62-3.93-0.57-1.25 0.05-2.42 0.28-3.47 0.52l-0.03 0.01-0.03 0.01c-4.36 1.18-8.08 3.55-11.18 6.36h-0.01l-0.01 0.01c-2.67 2.51-5.06 5.42-6.92 8.87-0.13 0.09-0.25 0.18-0.37 0.27-2.54 1.72-5.16 3.25-7.82 4.41-2.66 1.15-5.45 1.91-8.04 1.91-0.33 0-0.93-0.13-1.67-0.24-0.43-0.14-0.73-0.28-0.84-0.34l-0.04-0.15c0.02 0.11 0.05-0.25 0.09-0.63 0.32-0.94 0.91-2.13 1.59-3.24 0.26-0.42 0.65-0.9 1.01-1.37 1.29 0.15 2.61 0.14 3.86-0.33 2.15-0.66 3.76-1.96 5.12-3.32l0.04-0.04 0.03-0.04c0.6-0.7 1.19-1.48 1.69-2.29 0.62-0.92 1.22-2.14 1.34-3.71 0.13-0.93-0.04-2.12-0.76-3.24-0.7-1.21-1.78-1.86-2.84-2.17-0.46-0.21-1.08-0.4-1.76-0.4-0.79 0-1.34 0.15-1.66 0.22l-0.02 0.01-0.02 0.01c-0.68 0.19-1.35 0.4-2 0.79-1.96 1.04-3.28 2.37-4.44 3.44l-0.03 0.02-0.02 0.02c-1.26 1.26-2.42 2.62-3.48 4.07l-0.01 0.01-0.01 0.01c-1.34 1.91-2.65 3.96-3.58 6.38-1.09 1.52-2.3 2.97-3.6 4.27-2.27 2.18-5.03 3.75-7.52 3.94 0.46-1.29 1.44-3.23 2.26-4.79 0.92-1.74 1.86-3.43 2.8-5.32l0.02-0.03 0.02-0.04c0.82-1.94 1.76-4.01 1.97-6.79v-0.05-0.98c0-0.26 0.01-0.72-0.11-1.27l-0.01-0.03-0.1-0.64-0.22-0.66 0.04 0.17c-0.12-0.61-0.42-1.14-0.74-1.61-0.44-0.92-1.14-1.31-1.4-1.51-0.5-0.37-0.97-0.6-1.34-0.79l-0.31-0.15h-0.35c-0.12 0-0.39-0.05-0.76-0.14l-0.17-0.05h-1.29l-0.08 0.01c-2.62 0.3-4.77 1.12-6.71 2.1-3.88 1.93-7.21 4.52-10.31 7.15-0.89 0.72-1.67 1.55-2.53 2.31 0.61-1.26 1.09-2.63 1.16-4.28v-0.03-0.12c0-0.68-0.17-0.93-0.26-1.21l-0.03-0.1-0.05-0.09c-0.72-1.45-2.52-2.12-4.06-1.44l-0.01 0.01h-0.01c-2.56 1.18-4.02 3.09-5.19 5.03-0.32 0.52-0.64 1.07-0.95 1.62-0.04 0.03-0.07 0.05-0.1 0.08h-0.27l-0.41 0.82c-1.6 3.19-3.83 6.31-6.39 8.88-2.27 2.18-5.04 3.75-7.53 3.94 0.47-1.29 1.44-3.23 2.27-4.79 0.92-1.74 1.85-3.43 2.8-5.32l0.02-0.03 0.02-0.04c0.82-1.94 1.76-4.01 1.97-6.79v-0.05-0.98c0-0.28 0.01-0.78-0.14-1.38l0.03 0.11-0.11-0.67-0.23-0.66c-0.14-0.54-0.4-1.01-0.68-1.43-0.44-0.93-1.15-1.32-1.41-1.52-0.5-0.37-0.97-0.6-1.34-0.79l-0.31-0.15h-0.35c-0.13 0-0.39-0.05-0.76-0.14l-0.17-0.05h-1.29l-0.09 0.01c-2.61 0.3-4.76 1.12-6.7 2.1-3.87 1.93-7.2 4.51-10.3 7.13-0.89 0.73-1.68 1.57-2.54 2.33 0.6-1.25 1.09-2.63 1.16-4.28v-0.02-0.13c0-0.68-0.17-0.93-0.26-1.21l-0.03-0.1-0.05-0.09c-0.73-1.45-2.52-2.12-4.06-1.44l-0.01 0.01h-0.01c-2.56 1.18-4.02 3.09-5.19 5.03v0.01h-0.01c-0.7 1.16-1.4 2.41-2.07 3.68-1.31 0.23-2.67 0.29-3.62 0.08-0.18-0.04-0.21-0.09-0.36-0.14 0.54-1.52 1.26-3.4 1.15-5.8v-0.11l-0.02-0.11c-0.08-0.39-0.18-1.3-0.78-2.21-0.5-0.74-1.19-1.44-2.07-1.95l-0.13-0.06c-0.28-0.65-0.74-1.17-1.41-1.44-1.06-0.74-2.19-0.91-3.07-0.81-1.04 0.02-1.88 0.38-2.48 0.73-1.31 0.59-2.15 1.5-2.73 2.26-1.4 1.51-2.4 3.11-3.26 4.74h-0.01c-1.72 3.16-3.07 6.54-3.85 10.12v0.01 0.01c-0.19 0.93-0.4 1.95-0.4 3.08 0 0.93-0.1 2.37 0.71 4l0.02 0.03 0.02 0.04c0.52 0.91 1.4 1.83 2.74 2.16 1.06 0.36 2.04 0.24 2.6 0.15 1.35-0.23 2.48-0.8 3.37-1.46 1.74-1.13 3.04-2.54 4.11-3.89 0.86-1.02 1.52-2.1 2.17-3.17 1.07 0.26 2.15 0.54 3.19 0.46 0.3-0.02 0.6-0.04 0.89-0.07-0.13 0.31-0.26 0.62-0.38 0.94l-0.02 0.03-0.01 0.03c-0.64 1.92-1.33 4.08-1.37 6.6-0.2 1.02 0.21 2.11 0.98 2.76 1.21 1.12 3.17 0.9 4.12-0.42l-0.07 0.08c4.96-5.97 10.37-11.56 16.4-16.49 2.91-2.37 6.06-4.6 9.3-6.1 1.32-0.51 2.54-0.84 3.43-0.93-0.01 0.02-0.01 0.04-0.02 0.07l-2.03 4.87 0.01-0.01c-0.74 1.77-1.5 3.55-2.25 5.52l-0.01 0.02v0.02c-0.64 1.83-1.43 3.88-1.83 6.38l-0.01 0.06-0.01 0.05c-0.07 0.94-0.36 2.68 0.47 4.67 0.28 0.94 0.82 1.34 1.17 1.7l0.07 0.07 0.09 0.06c0.36 0.27 0.82 0.67 1.6 0.88 1.02 0.33 1.9 0.35 2.53 0.35h0.03 0.03c2.63-0.11 4.99-1.05 6.99-2.24 0.87-0.49 1.68-1.04 2.43-1.62v0.25c-0.22 1.02 0.2 2.11 0.97 2.76 1.18 1.09 3.08 0.91 4.05-0.34 4.96-5.97 10.37-11.56 16.4-16.49 2.91-2.37 6.06-4.6 9.3-6.1 1.32-0.51 2.53-0.84 3.42-0.93 0 0.02-0.01 0.04-0.01 0.07l-2.03 4.87 0.01-0.01c-0.75 1.77-1.5 3.55-2.25 5.52l-0.01 0.02v0.02c-0.64 1.83-1.43 3.88-1.83 6.38l-0.01 0.06v0.05c-0.08 0.94-0.37 2.68 0.46 4.67 0.28 0.94 0.82 1.34 1.17 1.7l0.07 0.07 0.09 0.06c0.36 0.27 0.82 0.67 1.6 0.88 1.02 0.33 1.9 0.35 2.53 0.35h0.04 0.02c2.63-0.11 4.99-1.05 6.99-2.24 1.77-0.98 3.26-2.23 4.61-3.47 0.57 1.08 1.46 2 2.53 2.6 1.22 0.82 2.51 1.05 3.5 1.15 0.92 0.09 1.92 0.2 2.96 0.09 1.91-0.1 3.68-0.5 5.31-0.98 1.69-0.49 3.23-1.17 4.71-1.82l0.03-0.02 0.03-0.01c1.23-0.6 2.42-1.24 3.59-1.9 0 0.16-0.02 0.31-0.02 0.48 0 1.43 0.34 3.12 1.35 4.69l0.02 0.03 0.01 0.02c1.01 1.45 2.42 2.43 3.91 2.92 0.89 0.41 1.64 0.44 1.85 0.52l0.23 0.07h0.24c0.39 0 0.95 0.09 1.67 0.09h0.04l1.67-0.09 1.61-0.21 0.08-0.02c1.95-0.46 3.94-0.93 5.9-1.62 3.68-1.22 7.27-2.74 10.68-4.54 3.92-1.9 7.7-3.96 11.42-6.07-0.83 2.43-1.65 4.93-2.33 7.55-0.75 2.91-1.45 6.05-1.25 9.54l0.01 0.05v0.04c0.19 1.62 0.53 3.81 2.22 5.72l0.03 0.04 0.03 0.03c0.74 0.74 1.71 1.52 2.98 1.92 0.73 0.27 1.33 0.3 1.42 0.33l0.18 0.04h0.18c0.25 0 0.78 0.14 1.59-0.04 2.05-0.15 3.7-0.85 5.07-1.49l0.03-0.02 0.04-0.02c1.48-0.79 2.76-1.68 4-2.63l0.01-0.01h0.01c4.87-3.82 8.74-8.27 12.46-12.74l0.01-0.01c3.74-4.58 7.2-9.25 10.56-14.1l0.03-0.06 0.03-0.05c0.75-1.31 0.34-3.02-0.89-3.89l-0.06-0.04-0.06-0.04c-0.94-0.53-2-0.3-2.88 0.27h-0.61l-0.44 0.67c-3.04 4.7-6.35 9.39-9.91 13.68l-0.01 0.01v0.01c-3.57 4.39-7.39 8.47-11.62 11.81-1.04 0.77-2.18 1.48-3.2 1.99l-0.02 0.01-0.02 0.01c-1.02 0.55-2.16 0.84-2.82 0.84h-0.06l-0.06 0.01c-0.84 0.06-1.3-0.2-1.48-0.44l-0.03-0.03-0.03-0.04c-0.12-0.15-0.48-1.14-0.57-2.19-0.07-2.3 0.52-4.94 1.24-7.48v-0.01c0.72-2.59 1.72-5.23 2.73-7.81 2.2-5.23 4.68-10.29 7.35-15.26 2.69-4.99 5.45-9.98 8.4-14.86h0.01v-0.01c2.09-3.41 4.2-6.72 6.37-10.03 5.97-0.71 12-1.32 18.01-1.5h0.01 0.01c6.22-0.27 12.43 0 18.64 0.91l0.11 0.02h0.2l-0.21-0.01c1.31 0.18 2.66-0.6 3.08-1.94 0.55-1.48-0.24-3.06-1.7-3.61l-0.03-0.01-1.98-0.74v0.16c-5.93-1.82-12.13-2.58-18.23-2.75-3.3-0.09-6.68 0-10.05 0.19-0.6 0.03-1.2 0.09-1.81 0.14l1.53-2.17 0.01-0.01c0.81-1.17 1.61-2.25 2.42-3.23v-0.01c0.97-1.16 2.03-2.73 1.92-5v0.07-0.37-0.09c0-1.82-1.67-3.22-3.47-3.06h0.01zm-711.73 1.34c-0.76-0.03-1.51 0-2.23 0.05h-0.04l-0.04 0.01c-5.9 0.69-10.93 3.32-15.43 6.04l-0.01 0.01-0.01 0.01c-4.56 2.84-8.62 6.15-12.39 9.73-7.59 7.22-14.25 15.19-20.14 23.8-2.91 4.21-5.62 8.71-7.97 13.41-0.01 0-0.01 0-0.01 0.01-2.44 4.6-4.61 9.5-6.22 14.61v0.02l-0.01 0.01c-0.75 2.54-1.42 5.21-1.81 8.01-0.38 2.75-0.58 5.68-0.09 8.76 0.41 3.02 1.61 6.24 3.86 8.9 2.17 2.58 5.09 4.29 8.02 5.2h0.01c2.95 0.88 5.8 1.18 8.59 1.18 1.37 0 2.81-0.1 4.19-0.3h0.01c1.46-0.19 2.8-0.48 4.09-0.76l0.04-0.01 0.04-0.01c5.25-1.43 9.99-3.62 14.59-6.15 9.13-4.89 17.36-10.98 25.36-17.3l0.01-0.01v-0.01c3.91-3.15 7.82-6.41 11.64-9.86l0.01-0.01c3.81-3.35 7.53-6.7 11.26-10.24l0.46-0.43v-0.32c0.25-0.53 0.32-1.13 0.24-1.73l0.6-0.4-1.27-1.28c-1.14-1.14-3.05-1.2-4.14 0.1l0.09-0.1-0.1 0.1v0.01c-6.91 7.09-14.38 13.73-22.13 20.01-3.84 3.11-7.89 5.96-12.05 8.82-4.14 2.77-8.27 5.33-12.65 7.61-4.37 2.19-8.89 3.99-13.43 4.88h-0.01c-2.2 0.44-4.37 0.61-6.64 0.44-2.2-0.18-4.38-0.62-6.23-1.38l-0.03-0.01-0.03-0.01c-1.75-0.64-3.18-1.75-4.23-3.11-0.95-1.36-1.59-3.04-1.75-4.9l-0.01-0.03v-0.03c-0.51-4 0.43-8.54 1.8-13 2.99-8.98 7.92-17.48 13.35-25.68 5.52-8.1 11.68-15.72 18.65-22.6l0.01-0.01 0.01-0.01c3.37-3.46 7.02-6.66 10.78-9.69h0.01c1.92-1.46 3.8-2.8 5.81-3.85l0.03-0.02 0.04-0.02c1.92-1.13 3.99-1.99 5.98-2.32 2.01-0.33 4.04-0.16 5.19 0.67l0.03 0.02 0.02 0.01c1.13 0.75 1.83 2.37 1.84 4.21-0.09 1.93-0.74 4.03-1.83 5.86l-0.01 0.03-0.01 0.02c-0.95 1.74-2.41 3.36-4.01 4.61h-0.04l-0.26 0.26-0.51 0.38v0.58c-0.53 1.04-0.59 2.26 0.15 3.16l0.05 0.05 0.04 0.04c1.03 1.03 2.87 1.19 4.06 0.17l0.01-0.01 0.02-0.01c2.06-1.86 3.83-4.03 5.3-6.57v-0.01-0.01c1.4-2.49 2.31-5.32 2.41-8.36 0.11-1.58-0.1-3.27-0.75-4.88-0.65-1.65-1.75-3.07-3.16-4.15l-0.05-0.04-0.05-0.03c-1.45-0.94-3.01-1.56-4.59-1.88-0.79-0.16-1.57-0.23-2.33-0.26zm73.07 4.62c0.02 0.12 0.03 0.23 0.04 0.36l-0.6-0.13 0.56-0.23zm63.04 5.91c0 0.05 0.09 0.09 0.1 0.15v0.02l-0.1-0.17zm0.02 1.54l-0.01 0.11c-0.18 1.05-0.28 1.85-0.55 2.53l-0.03 0.07-0.02 0.07c-1.06 3.71-2.85 7.3-4.94 10.76-2.19 3.47-4.55 6.74-7.27 9.82-2.62 2.98-5.62 5.8-8.73 8.45-0.57 0.42-1.14 0.78-1.71 1.2 0.48-0.98 0.94-1.98 1.44-2.95v-0.01c3.99-7.22 8.04-14.48 12.86-20.76 0 0 0-0.01 0.01-0.01 0.61-0.79 1.24-1.5 1.88-2.24 0.74-0.84 1.3-1.68 1.86-2.32l-0.03 0.02 1.08-1.16 0.04-0.06c0.11-0.15 0.48-0.43 0.92-1.02l-0.06 0.08c0.49-0.56 1.15-1.08 1.84-1.75l0.92-0.61c0.22-0.11 0.36-0.16 0.5-0.22zm-41.62 16.34c-0.82 0.01-1.65 0.25-2.38 0.72l-0.04 0.03-0.05 0.03c-0.88 0.66-1.48 1.38-1.98 2.09l-0.03 0.03-0.02 0.04c-0.48 0.77-0.89 1.47-1.28 2.26-0.37 0.74-0.78 1.55-1.1 2.51-0.26 0.79-0.56 1.76-0.59 2.88-0.16 0.99 0.23 1.99 1.02 2.58l0.01 0.01 0.01 0.01c1.22 0.86 2.93 0.68 3.95-0.34l-0.64-1.57c0.03-0.04 0.08-0.08 0.11-0.12l0.8 1.28-0.07 0.1c0.02-0.03 0.06-0.06 0.08-0.08v-0.01c0.3-0.35 0.68-0.75 1.12-1.18l0.04-0.05 0.05-0.05c0.25-0.31 0.76-0.72 1.29-1.29l1.7-1.33 0.07-0.07c0.42-0.42 1-0.94 1.44-1.71l0.21-0.22 0.11-0.21c0.69-1.39 0.7-3.15-0.3-4.57-0.66-0.96-1.65-1.53-2.72-1.71-0.27-0.05-0.54-0.07-0.81-0.06zm178.53 0c-0.82 0.01-1.65 0.25-2.37 0.72l-0.05 0.03-0.04 0.03c-0.88 0.66-1.48 1.38-1.98 2.09l-0.03 0.03-0.03 0.04c-0.48 0.77-0.88 1.47-1.27 2.26-0.37 0.74-0.78 1.55-1.1 2.51-0.26 0.79-0.56 1.76-0.6 2.88-0.15 0.99 0.24 1.99 1.02 2.58l0.02 0.01 0.01 0.01c1.21 0.86 2.93 0.68 3.95-0.34l-0.65-1.57 0.12-0.12 0.8 1.28-0.07 0.1c0.02-0.03 0.06-0.06 0.08-0.08 0.29-0.36 0.68-0.76 1.11-1.19l0.05-0.05 0.04-0.05c0.26-0.31 0.76-0.72 1.29-1.29l1.71-1.33 0.06-0.07c0.43-0.42 1-0.94 1.45-1.71l0.21-0.22 0.11-0.21c0.69-1.39 0.69-3.15-0.3-4.57-0.67-0.96-1.66-1.53-2.73-1.71-0.26-0.05-0.54-0.07-0.81-0.06zm-119.46 19.06c0.16 0 0.29 0.02 0.37 0.05l0.02 0.01 0.02 0.01c0.6 0.21 1.14 0.72 1.46 1.49l0.02 0.05 0.02 0.05c0.02 0.03 0.1 0.28 0.13 0.38-2.35 3.3-4.69 6.52-7.2 9.73l1.46 0.5c0 0.01 0 0.01-0.01 0.01l-1.47-0.49c-1.64 2.18-3.46 4.36-5.28 6.36-1.03 1.04-1.91 2-2.87 2.71l-0.02 0.02-0.01 0.01c-0.33 0.26-0.69 0.47-0.94 0.6-0.03-0.14-0.09-0.34-0.09-0.65v-0.06-0.06c-0.07-0.77 0.15-1.96 0.43-3.25 0.61-2.42 1.66-4.8 2.9-7.03 1.25-2.23 2.77-4.37 4.36-6.14l0.02-0.02 0.03-0.03c0.68-0.83 1.59-1.51 2.55-2.28h0.01c0.88-0.69 1.62-1.33 2.37-1.67l0.03-0.01 0.02-0.01c0.41-0.2 1.18-0.3 1.67-0.28zm184.7 0c0.16 0 0.29 0.02 0.37 0.05l0.02 0.01 0.02 0.01c0.59 0.21 1.13 0.72 1.46 1.49l0.02 0.05 0.02 0.05c0.02 0.03 0.1 0.28 0.13 0.38-2.35 3.3-4.69 6.52-7.21 9.73l1.47 0.5c0 0.01-0.01 0.01-0.01 0.01l-1.48-0.49c-1.63 2.18-3.45 4.37-5.28 6.37-1.03 1.04-1.91 1.99-2.86 2.7l-0.02 0.02-0.02 0.01c-0.32 0.26-0.68 0.47-0.93 0.59-0.03-0.13-0.09-0.33-0.09-0.64v-0.06l-0.01-0.06c-0.06-0.77 0.16-1.96 0.43-3.25 0.61-2.42 1.67-4.8 2.91-7.03 1.25-2.23 2.77-4.37 4.36-6.14l0.02-0.02 0.02-0.03c0.68-0.83 1.59-1.51 2.56-2.28h0.01c0.88-0.69 1.62-1.33 2.37-1.67l0.03-0.01 0.02-0.01c0.4-0.2 1.18-0.3 1.67-0.28zm175.6 7.53c0.37 0.59 0.9 1.07 1.4 1.58-1.27 1.84-2.71 3.45-4.3 4.5 0.1-0.3 0.19-0.66 0.29-0.9l0.01-0.03 0.01-0.03c0.65-1.71 1.59-3.44 2.59-5.12zm2.12 2.39c0.03 0.03 0.05 0.03 0.08 0.05 0.03 0.03 0.05 0.07 0.08 0.09l-0.16-0.14z"
     fill="#ffffff" /></svg>