<?xml version="1.0" encoding="UTF-8" standalone="no"?>
<svg
   xmlns:dc="http://purl.org/dc/elements/1.1/"
   xmlns:cc="http://creativecommons.org/ns#"
   xmlns:rdf="http://www.w3.org/1999/02/22-rdf-syntax-ns#"
   xmlns:svg="http://www.w3.org/2000/svg"
   xmlns="http://www.w3.org/2000/svg"
   id="svg22"
   xml:space="preserve"
   viewBox="0 0 1024 768"
   y="0px"
   x="0px"
   version="1.1"><metadata
     id="metadata28"><rdf:RDF><cc:Work
         rdf:about=""><dc:format>image/svg+xml</dc:format><dc:type
           rdf:resource="http://purl.org/dc/dcmitype/StillImage" /></cc:Work></rdf:RDF></metadata><defs
     id="defs26" /><g
     style="fill:#8f00ff"
     transform="matrix(0.96864,0,0,0.96864,16.051,43.564)"
     id="logo-group"><path
       stroke-miterlimit="2"
       d="m 187.83,453.83 c -0.57456,-0.57456 -1.5322,-0.57456 -2.011,0 l -0.0958,0.0958 c -7.182,7.3735 -14.939,14.268 -22.982,20.78 -4.0219,3.2558 -8.2354,6.2244 -12.545,9.193 -4.3092,2.8728 -8.6184,5.5541 -13.215,7.9481 -4.5965,2.2982 -9.3845,4.2134 -14.268,5.171 -2.394,0.4788 -4.788,0.67032 -7.2778,0.4788 -2.394,-0.19152 -4.788,-0.67032 -6.8947,-1.5322 -2.1067,-0.76608 -3.8304,-2.1067 -5.0753,-3.7346 -1.1491,-1.6279 -1.9152,-3.6389 -2.1067,-5.8414 -0.57456,-4.5007 0.4788,-9.3845 1.9152,-14.077 3.1601,-9.4802 8.3311,-18.386 13.981,-26.909 5.7456,-8.4269 12.162,-16.375 19.439,-23.557 3.5431,-3.6389 7.3735,-6.9905 11.3,-10.151 2.011,-1.5322 4.0219,-2.9686 6.2244,-4.1177 2.1067,-1.2449 4.405,-2.2025 6.7032,-2.5855 2.2982,-0.38304 4.788,-0.28728 6.5117,0.9576 1.7237,1.1491 2.5855,3.3516 2.5855,5.6498 -0.0958,2.2982 -0.86184,4.6922 -2.1067,6.799 -1.1491,2.1067 -2.8728,4.0219 -4.788,5.4583 v 0.0958 h -0.0958 c -0.57456,0.57456 -0.57456,1.4364 -0.0958,2.011 0.57456,0.57456 1.4364,0.67032 2.1067,0.0958 2.011,-1.8194 3.7346,-3.9262 5.171,-6.4159 1.3406,-2.394 2.2025,-5.0753 2.2982,-7.9481 0.0958,-1.4364 -0.0958,-2.9686 -0.67032,-4.405 -0.57456,-1.4364 -1.5322,-2.6813 -2.777,-3.6389 -1.3406,-0.86184 -2.777,-1.4364 -4.2134,-1.7237 -1.4364,-0.28728 -2.8728,-0.28728 -4.3092,-0.19152 -5.7456,0.67032 -10.725,3.2558 -15.322,6.0329 -4.5965,2.8728 -8.7142,6.2244 -12.545,9.8633 -7.7566,7.3735 -14.556,15.513 -20.588,24.323 -2.9686,4.3092 -5.7456,8.9057 -8.1396,13.694 -2.4898,4.6922 -4.6922,9.6718 -6.3202,14.843 -0.76608,2.5855 -1.4364,5.2668 -1.8194,8.0438 -0.38304,2.777 -0.57456,5.6498 -0.09576,8.6184 0.38304,2.8728 1.5322,5.9371 3.6389,8.4269 2.011,2.394 4.788,4.0219 7.565,4.8838 2.8728,0.86184 5.6498,1.1491 8.4269,1.1491 1.3406,0 2.777,-0.0958 4.1177,-0.28728 1.4364,-0.19152 2.777,-0.4788 4.1177,-0.76608 5.2668,-1.4364 10.055,-3.6389 14.747,-6.2244 9.2887,-4.9795 17.716,-11.204 25.951,-17.716 4.0219,-3.2558 8.0438,-6.6074 11.97,-10.151 3.9262,-3.4474 7.7566,-6.8947 11.587,-10.534 v -0.0958 c 0.57456,-0.57456 0.57456,-1.4364 0,-2.011 z"
       style="font-variant-ligatures:normal;stroke:#8f00ff;stroke-width:3.05900002;stroke-miterlimit:2"
       id="path211921" /><path
       stroke-miterlimit="2"
       d="m 249.13,453.54 c -0.67032,-0.38304 -1.5322,-0.0958 -1.9152,0.57456 -1.8194,3.2558 -4.2134,6.4159 -6.799,9.0972 -2.5855,2.6813 -5.7456,4.9795 -9.0972,6.0329 -0.38304,0.19152 -0.76608,0.19152 -1.2449,0.19152 -0.38304,0.0958 -0.76608,0.19152 -1.2449,0.0958 h -1.1491 c -0.38304,-0.0958 -0.76608,-0.19152 -1.0534,-0.38304 -0.57456,-0.19152 -0.86184,-0.67032 -1.1491,-1.1491 -0.19152,-0.4788 -0.28728,-1.2449 -0.28728,-2.011 0,-1.5322 0.28728,-3.3516 0.4788,-5.2668 0.28728,-1.9152 0.57456,-3.8304 0.4788,-6.0329 0,-1.1491 -0.19152,-2.2982 -0.67032,-3.6389 -0.4788,-1.2449 -1.6279,-2.6813 -3.1601,-3.2558 -1.4364,-0.67032 -2.777,-0.57456 -4.0219,-0.38304 -1.1491,0.28728 -2.2025,0.57456 -3.1601,1.0534 -1.9152,0.86184 -3.6389,2.011 -5.171,3.2558 -1.6279,1.2449 -3.0643,2.5855 -4.5007,3.9262 -3.4474,3.2558 -6.6074,6.7032 -9.6718,10.246 0.28728,-0.67032 0.67032,-1.3406 0.9576,-2.011 1.7237,-3.4474 3.5431,-6.799 5.3626,-10.151 3.7346,-6.7032 7.7566,-13.215 11.874,-19.631 4.2134,-6.3202 8.7142,-12.64 13.406,-18.577 2.394,-2.8728 4.8838,-5.7456 7.3735,-8.3311 0.67032,-0.57456 1.2449,-1.2449 1.9152,-1.7237 0.57456,-0.4788 1.2449,-0.86184 1.4364,-1.0534 0.19152,0.4788 0.28728,1.1491 0.19152,1.6279 v 0.38304 c 0,0.4788 0.28728,1.0534 0.76608,1.3406 0.76608,0.28728 1.6279,0 1.9152,-0.67032 0.67032,-1.2449 0.9576,-2.2982 0.76608,-3.7346 -0.0958,-0.76608 -0.28728,-1.7237 -1.2449,-2.4898 -0.86184,-0.86184 -2.1067,-1.0534 -2.9686,-0.9576 -1.7237,0.19152 -2.6813,0.76608 -3.7346,1.3406 -0.9576,0.67032 -1.8194,1.2449 -2.5855,1.9152 -3.2558,2.6813 -5.7456,5.7456 -8.2354,8.8099 -4.8838,6.2244 -9.3845,12.64 -13.502,19.248 -4.1177,6.6074 -7.9481,13.406 -11.3,20.493 -1.7237,3.4474 -3.3516,6.9905 -4.8838,10.629 -0.76608,1.8194 -1.4364,3.6389 -2.1067,5.4583 -0.67032,1.9152 -1.2449,3.6389 -1.7237,5.7456 -0.19152,0.57456 0,1.2449 0.57456,1.6279 0.67032,0.4788 1.5322,0.28728 2.011,-0.38304 4.405,-6.3202 9.3845,-12.257 15.034,-17.428 2.777,-2.5855 5.8414,-4.9795 9.0972,-6.3202 0.86184,-0.28728 1.6279,-0.4788 2.394,-0.4788 0.76608,0.0958 1.4364,0.38304 1.6279,0.76608 0.28728,0.38304 0.19152,0.67032 0.28728,1.2449 v 2.2025 c 0,1.6279 -0.19152,3.5431 -0.19152,5.4583 -0.0958,2.011 -0.0958,4.1177 0.38304,6.4159 0.28728,1.1491 0.67032,2.2982 1.4364,3.4474 0.76608,1.1491 2.1067,2.011 3.3516,2.394 0.67032,0.19152 1.2449,0.19152 1.8194,0.28728 l 1.7237,-0.0958 c 0.57456,0 1.1491,-0.19152 1.6279,-0.28728 0.4788,-0.19152 1.0534,-0.28728 1.5322,-0.4788 4.1177,-1.4364 7.182,-4.2134 9.959,-6.9905 1.4364,-1.4364 2.6813,-2.9686 3.9262,-4.5007 1.2449,-1.5322 2.394,-3.1601 3.5431,-4.788 l 0.0958,-0.0958 c 0.38304,-0.76608 0.19152,-1.6279 -0.57456,-2.011 z m -11.108,-49.412 c 0,0.0958 0.0958,0.0958 0.0958,0.19152 -0.0958,-0.0958 -0.19152,-0.0958 -0.19152,-0.19152 -0.19152,-0.19152 0,-0.19152 0.0958,0 z"
       style="font-variant-ligatures:normal;stroke:#8f00ff;stroke-width:3.05900002;stroke-miterlimit:2"
       id="path211923" /><path
       stroke-miterlimit="2"
       d="m 256.67,441.66 0.0958,-0.19152 c 0.38304,-0.4788 0.86184,-0.9576 1.3406,-1.4364 0.4788,-0.57456 1.0534,-0.9576 1.5322,-1.5322 l 1.7237,-1.3406 c 0.4788,-0.4788 1.0534,-1.0534 1.3406,-1.6279 l 0.19152,-0.19152 c 0.4788,-0.9576 0.4788,-2.2025 -0.19152,-3.1601 -0.86184,-1.2449 -2.6813,-1.5322 -4.0219,-0.67032 -0.76608,0.57456 -1.2449,1.1491 -1.7237,1.8194 -0.4788,0.76608 -0.86184,1.4364 -1.2449,2.2025 -0.38304,0.76608 -0.76608,1.5322 -1.0534,2.394 -0.28728,0.86184 -0.57456,1.7237 -0.57456,2.6813 -0.0958,0.4788 0.0958,0.9576 0.4788,1.2449 0.67032,0.4788 1.5322,0.38304 2.1067,-0.19152 z m 17.141,12.162 c -0.57456,-0.57456 -1.4364,-0.57456 -2.011,0 h -0.0958 c -3.1601,3.1601 -6.6074,5.9371 -10.246,8.5226 -1.8194,1.2449 -3.7346,2.4898 -5.6498,3.4474 -1.9152,0.9576 -4.0219,1.9152 -5.9371,2.2025 -0.28728,0 -0.4788,0.0958 -0.76608,0.0958 h -0.67032 c -0.4788,0 -0.86184,0 -1.1491,-0.19152 -0.67032,-0.19152 -0.76608,-0.4788 -0.86184,-1.1491 -0.19152,-1.3406 0.4788,-3.4474 1.3406,-5.2668 0.76608,-1.9152 1.8194,-3.8304 2.8728,-5.6498 0.57456,-0.86184 1.1491,-1.8194 1.7237,-2.5855 0.28728,-0.4788 0.67032,-0.86184 0.86184,-1.2449 0.0958,-0.4788 0.19152,-1.0534 -0.19152,-1.9152 l -0.28728,-0.9576 c -0.19152,-0.67032 -0.76608,-1.1491 -1.5322,-1.2449 -1.1491,-0.0958 -1.9152,0.19152 -2.394,0.57456 -0.4788,0.4788 -0.86184,1.0534 -1.1491,1.5322 -0.67032,1.0534 -1.3406,2.1067 -1.9152,3.1601 -1.0534,2.1067 -2.011,4.3092 -2.5855,6.7032 -0.38304,1.1491 -0.67032,2.394 -0.76608,3.7346 -0.0958,1.2449 -0.19152,2.6813 0.28728,4.2134 0.28728,0.76608 0.67032,1.5322 1.3406,2.2025 0.67032,0.57456 1.5322,1.0534 2.2982,1.2449 0.86184,0.0958 1.5322,0.0958 2.2025,0 l 1.0534,-0.0958 c 0.28728,0 0.57456,-0.0958 0.86184,-0.19152 2.4898,-0.67032 4.5965,-1.6279 6.6074,-2.8728 2.011,-1.1491 3.9262,-2.394 5.8414,-3.7346 1.9152,-1.2449 3.6389,-2.6813 5.4583,-4.1177 1.8194,-1.3406 3.5431,-2.777 5.3626,-4.3092 l 0.0958,-0.0958 c 0.57456,-0.57456 0.57456,-1.4364 0,-2.011 z"
       style="font-variant-ligatures:normal;stroke:#8f00ff;stroke-width:3.05900002;stroke-miterlimit:2"
       id="path211925" /><path
       stroke-miterlimit="2"
       d="m 309.2,453.73 c -0.57456,-0.4788 -1.5322,-0.38304 -2.011,0.19152 v 0.0958 c -5.4583,6.6074 -11.3,13.023 -17.428,19.152 -3.0643,2.9686 -6.2244,5.9371 -9.576,8.6184 -1.6279,1.3406 -3.3516,2.5855 -5.0753,3.7346 -1.7237,1.0534 -3.7346,2.011 -5.2668,1.9152 -0.76608,0 -1.4364,-0.28728 -1.9152,-0.76608 -0.4788,-0.4788 -0.86184,-1.2449 -1.1491,-2.1067 -0.4788,-1.7237 -0.4788,-3.8304 -0.28728,-5.8414 0.28728,-4.1177 1.4364,-8.2354 2.6813,-12.353 1.2449,-3.5431 2.5855,-7.0862 4.1177,-10.534 3.5431,-2.2982 6.9905,-4.6922 10.246,-7.3735 3.3516,-2.8728 6.4159,-5.9371 9.3845,-9.2887 2.8728,-3.2558 5.5541,-6.799 7.9481,-10.534 2.2982,-3.7346 4.5007,-7.565 5.8414,-11.874 0.4788,-1.0534 0.67032,-2.2982 0.86184,-3.3516 0.0958,-0.67032 0.0958,-1.2449 0.19152,-1.8194 v -0.4788 c 0,-0.28728 0,-0.4788 -0.0958,-0.76608 -0.0958,-0.4788 -0.38304,-0.86184 -0.67032,-1.2449 -1.2449,-1.5322 -3.0643,-1.7237 -4.405,-1.5322 -0.76608,0.0958 -1.3406,0.28728 -2.011,0.4788 l -1.7237,0.67032 c -4.5007,2.1067 -7.8523,5.4583 -10.534,9.0972 -2.777,3.5431 -5.0753,7.2778 -7.3735,11.108 l -3.1601,5.7456 c -1.0534,2.011 -2.011,3.9262 -2.9686,5.9371 -3.7346,7.9481 -7.0862,16.088 -9.4802,24.61 -1.1491,4.3092 -2.1067,8.7142 -2.2982,13.215 -0.0958,2.2982 -0.0958,4.6922 0.67032,7.0862 0.38304,1.1491 1.0534,2.4898 2.1067,3.4474 1.0534,1.0534 2.5855,1.5322 4.0219,1.5322 1.3406,0 2.6813,-0.38304 3.7346,-0.9576 1.0534,-0.4788 2.011,-1.0534 3.0643,-1.6279 1.9152,-1.2449 3.6389,-2.5855 5.3626,-4.0219 3.3516,-2.777 6.5117,-5.8414 9.576,-8.9057 6.2244,-6.1286 12.066,-12.64 17.811,-19.152 v -0.0958 c 0.57456,-0.57456 0.4788,-1.4364 -0.19152,-2.011 z m -29.781,-10.821 c 4.1177,-7.4693 8.3311,-15.034 13.406,-21.642 0.67032,-0.86184 1.3406,-1.6279 2.011,-2.394 0.67032,-0.76608 1.2449,-1.6279 1.9152,-2.394 l 1.0534,-1.1491 c 0.28728,-0.38304 0.67032,-0.67032 0.9576,-1.0534 0.67032,-0.76608 1.4364,-1.3406 2.1067,-2.011 l 1.1491,-0.76608 c 0.38304,-0.19152 0.76608,-0.38304 1.1491,-0.4788 0.76608,-0.28728 1.3406,-0.19152 1.6279,0 0,0.0958 0.0958,0.0958 0.0958,0.0958 v 0.0958 0.28728 l -0.0958,1.4364 c -0.19152,1.0534 -0.28728,2.011 -0.67032,2.9686 -1.1491,4.0219 -3.0643,7.8523 -5.2668,11.491 -2.2982,3.6389 -4.788,7.0862 -7.6608,10.342 -2.777,3.1601 -5.9371,6.1286 -9.193,8.9057 -2.2025,1.6279 -4.405,3.2558 -6.7032,4.6922 1.3406,-2.8728 2.6813,-5.6498 4.1177,-8.4269 z"
       style="font-variant-ligatures:normal;stroke:#8f00ff;stroke-width:3.05900002;stroke-miterlimit:2"
       id="path211927" /><path
       stroke-miterlimit="2"
       d="m 364.47,453.54 c -0.67032,-0.28728 -1.5322,0 -1.8194,0.76608 h -0.0958 c -1.9152,4.5965 -4.405,9.0014 -7.2778,13.119 -1.3406,2.1067 -2.9686,4.0219 -4.5965,5.8414 -1.7237,1.7237 -3.5431,3.3516 -5.6498,4.5965 -2.011,1.1491 -4.3092,1.9152 -6.4159,1.7237 -0.9576,-0.0958 -1.7237,-0.4788 -2.2982,-1.1491 -0.4788,-0.67032 -0.86184,-1.5322 -1.0534,-2.6813 -0.38304,-2.1067 -0.19152,-4.5965 0.28728,-6.9905 0.38304,-2.394 1.0534,-4.788 1.8194,-7.182 2.8728,-9.576 6.9905,-18.865 11.108,-28.058 4.2134,-9.193 8.6184,-18.194 11.97,-27.866 0.38304,-0.38304 0.38304,-1.0534 0.0958,-1.6279 -0.38304,-0.67032 -1.2449,-0.86184 -2.011,-0.4788 -0.9576,0.67032 -1.4364,1.2449 -2.011,1.8194 l -1.4364,1.8194 c -0.9576,1.1491 -1.8194,2.394 -2.6813,3.6389 -1.7237,2.394 -3.4474,4.8838 -5.0753,7.3735 l -9.7675,14.939 c -3.5431,5.2668 -7.0862,10.629 -10.725,15.896 -0.57456,-1.5322 -1.7237,-3.0643 -3.3516,-3.8304 -0.38304,-0.28728 -0.76608,-0.4788 -1.2449,-0.57456 -0.38304,-0.19152 -0.86184,-0.38304 -1.3406,-0.38304 -0.38304,-0.0958 -0.86184,-0.28728 -1.3406,-0.28728 -0.38304,-0.0958 -0.86184,-0.0958 -1.3406,-0.0958 -1.9152,0 -3.8304,0.4788 -5.3626,1.4364 -1.5322,0.9576 -2.6813,2.2025 -3.8304,3.4474 -1.0534,1.2449 -2.011,2.5855 -2.8728,3.9262 -0.76608,1.4364 -1.5322,2.8728 -2.1067,4.3092 -1.2449,2.8728 -2.2025,5.9371 -2.6813,9.0972 -0.19152,1.6279 -0.28728,3.2558 0,5.0753 0.19152,0.86184 0.38304,1.7237 0.9576,2.6813 0.4788,0.86184 1.4364,1.8194 2.5855,2.1067 0.28728,0.0958 0.57456,0.0958 0.86184,0.0958 0.28728,0 0.4788,0.0958 0.86184,0.0958 0.28728,-0.0958 0.57456,-0.0958 0.86184,-0.19152 l 0.67032,-0.28728 c 0.86184,-0.4788 1.5322,-0.9576 2.2025,-1.4364 1.1491,-1.0534 2.2982,-2.2025 3.2558,-3.3516 2.1067,-2.2025 3.9262,-4.5965 5.7456,-6.9905 l 6.0329,-8.4269 c 0,0.9576 -0.0958,1.9152 -0.28728,2.9686 v 0.28728 c 0.0958,0.86184 0.76608,1.4364 1.5322,1.3406 0.76608,0 1.4364,-0.67032 1.3406,-1.4364 -0.0958,-2.1067 0,-4.3092 -0.28728,-6.5117 3.9262,-5.8414 7.8523,-11.778 11.778,-17.716 2.5855,-3.8304 5.0753,-7.6608 7.565,-11.395 l -3.7346,8.2354 c -2.011,4.788 -3.9262,9.4802 -5.5541,14.364 -1.7237,4.8838 -3.3516,9.8633 -4.5007,14.939 -0.57456,2.4898 -1.1491,5.0753 -1.4364,7.6608 -0.28728,2.6813 -0.4788,5.3626 0.0958,8.2354 0.28728,1.4364 0.86184,2.9686 2.011,4.2134 1.2449,1.3406 2.9686,1.9152 4.5007,2.011 1.5322,0 2.9686,-0.19152 4.3092,-0.67032 1.3406,-0.38304 2.5855,-0.9576 3.7346,-1.7237 4.6922,-2.8728 7.9481,-7.0862 11.012,-11.3 1.4364,-2.1067 2.8728,-4.405 4.1177,-6.6074 1.3406,-2.2025 2.4898,-4.5007 3.6389,-6.8947 0.28728,-0.76608 0,-1.6279 -0.76608,-1.9152 z m -47.305,8.7142 c -1.7237,2.2982 -3.6389,4.5965 -5.5541,6.7032 -1.0534,1.0534 -2.011,2.1067 -3.1601,2.9686 -0.4788,0.38304 -1.0534,0.76608 -1.5322,0.9576 -0.0958,0.0958 -0.19152,0.0958 -0.28728,0.0958 -0.0958,0.0958 -0.19152,0.0958 -0.28728,0.0958 -0.0958,-0.0958 -0.38304,-0.0958 -0.4788,-0.19152 -0.28728,-0.0958 -0.4788,-0.28728 -0.67032,-0.67032 -0.19152,-0.38304 -0.28728,-0.9576 -0.28728,-1.5322 -0.0958,-1.1491 0.19152,-2.4898 0.4788,-3.8304 0.67032,-2.6813 1.8194,-5.2668 3.1601,-7.6608 1.3406,-2.394 2.9686,-4.6922 4.6922,-6.6074 0.86184,-1.0534 1.9152,-1.8194 2.8728,-2.5855 0.86184,-0.67032 1.7237,-1.4364 2.777,-1.9152 0.9576,-0.4788 2.394,-0.67032 3.3516,-0.28728 1.0534,0.38304 1.9152,1.2449 2.394,2.394 0.19152,0.38304 0.28728,0.86184 0.4788,1.3406 -2.5855,3.6389 -5.171,7.182 -7.9481,10.725 z"
       style="font-variant-ligatures:normal;stroke:#8f00ff;stroke-width:3.05900002;stroke-miterlimit:2"
       id="path211929" /><path
       stroke-miterlimit="2"
       d="m 432.76,453.54 c -0.67032,-0.38304 -1.5322,-0.0958 -1.9152,0.57456 v 0.0958 c -1.7237,3.0643 -3.7346,6.1286 -5.9371,8.9057 -2.2025,2.777 -4.5965,5.4583 -7.3735,7.4693 -1.4364,0.9576 -2.9686,1.7237 -4.405,1.9152 -0.38304,0.0958 -0.67032,0.0958 -1.0534,0.0958 -0.38304,0 -0.76608,-0.0958 -1.1491,-0.0958 -0.67032,-0.19152 -1.2449,-0.4788 -1.6279,-0.76608 -0.67032,-0.67032 -0.76608,-1.9152 -0.67032,-3.4474 0.19152,-1.5322 0.67032,-3.1601 1.0534,-4.8838 0.4788,-1.7237 0.9576,-3.4474 1.3406,-5.3626 0.0958,-1.0534 0.28728,-2.1067 0.0958,-3.4474 -0.0958,-0.28728 -0.0958,-0.57456 -0.28728,-0.9576 -0.0958,-0.38304 -0.28728,-0.76608 -0.57456,-1.1491 -0.19152,-0.38304 -0.57456,-0.76608 -0.9576,-1.1491 -0.38304,-0.28728 -0.86184,-0.57456 -1.3406,-0.67032 -0.9576,-0.19152 -1.6279,-0.0958 -2.2982,0 l -1.6279,0.57456 c -1.0534,0.38304 -1.9152,0.86184 -2.777,1.4364 -1.6279,1.0534 -2.9686,2.394 -4.3092,3.6389 -2.9686,3.0643 -5.6498,6.2244 -8.2354,9.4802 0.38304,-0.76608 0.86184,-1.6279 1.2449,-2.4898 1.8194,-3.6389 3.7346,-7.2778 5.6498,-10.917 0.9576,-1.8194 1.8194,-3.7346 2.777,-5.6498 0.86184,-1.9152 1.8194,-3.8304 2.2025,-6.3202 0,-0.67032 0.19152,-1.3406 0,-2.394 -0.0958,-0.57456 -0.38304,-1.5322 -1.3406,-2.2025 -0.9576,-0.67032 -2.011,-0.4788 -2.011,-0.4788 l -1.7237,0.28728 c -0.57456,0.19152 -1.1491,0.38304 -1.7237,0.4788 -2.2025,0.67032 -4.2134,1.3406 -6.1286,2.394 -3.8304,2.011 -7.182,4.6922 -10.246,7.565 -3.1601,2.777 -5.9371,5.9371 -8.7142,9.0014 -2.777,3.1601 -5.3626,6.4159 -7.8523,9.7675 -0.67032,0.86184 -1.3406,1.8194 -2.011,2.6813 l 1.9152,-3.7346 2.1067,-4.0219 c 1.4364,-2.5855 2.8728,-5.171 4.405,-7.7566 1.6279,-2.5855 2.9686,-5.2668 3.4474,-8.5226 h 0.0958 c 0,-0.38304 -0.0958,-0.76608 -0.28728,-1.1491 -0.4788,-0.67032 -1.4364,-0.86184 -2.1067,-0.38304 -2.8728,1.9152 -4.5965,4.405 -6.0329,7.182 -1.5322,2.6813 -3.0643,5.3626 -4.3092,8.2354 -1.3406,2.777 -2.5855,5.6498 -3.5431,8.7142 -0.19152,0.76608 -0.4788,1.5322 -0.67032,2.2982 l -0.28728,1.1491 -0.19152,1.2449 c -0.28728,1.5322 -0.38304,3.2558 -0.0958,4.9795 0,0.4788 0.28728,1.0534 0.76608,1.3406 0.67032,0.38304 1.5322,0.19152 1.9152,-0.4788 v -0.0958 c 4.2134,-6.9905 9.0972,-13.789 14.46,-19.918 2.6813,-3.1601 5.4583,-6.1286 8.5226,-8.8099 3.0643,-2.6813 6.3202,-5.0753 9.959,-6.8947 1.7237,-0.76608 3.5431,-1.5322 5.4583,-1.7237 h 1.1491 c -0.76608,1.5322 -1.5322,3.3516 -2.2982,5.171 l -2.5855,5.5541 c -1.8194,3.7346 -3.5431,7.565 -4.9795,11.491 -0.76608,2.011 -1.4364,4.0219 -2.011,6.1286 -0.4788,2.011 -0.9576,4.1177 -0.86184,6.4159 -0.19152,0.57456 0.0958,1.2449 0.67032,1.6279 0.67032,0.38304 1.5322,0.0958 1.9152,-0.57456 1.8194,-3.0643 3.8304,-6.1286 6.0329,-8.9057 2.2025,-2.8728 4.5965,-5.6498 7.182,-8.0438 1.3406,-1.1491 2.6813,-2.2025 4.1177,-3.0643 0.76608,-0.38304 1.4364,-0.76608 2.2025,-0.9576 0.28728,0 0.67032,-0.0958 0.9576,0.0958 0.28728,0.0958 0.4788,0.28728 0.38304,0.38304 -0.0958,0.0958 -0.28728,0 -0.38304,0.0958 h -0.0958 l -0.0958,0.19152 c 0,0 -0.0958,0.19152 -0.0958,0.28728 -0.0958,0.4788 -0.0958,1.2449 -0.19152,2.011 l -0.86184,5.2668 c -0.28728,1.8194 -0.57456,3.8304 -0.4788,5.9371 0.0958,1.0534 0.28728,2.2025 0.67032,3.3516 0.4788,1.1491 1.2449,2.2982 2.394,3.0643 1.1491,0.67032 2.2982,0.9576 3.4474,1.0534 0.57456,0 1.0534,0.0958 1.6279,0 0.57456,0 1.0534,-0.0958 1.6279,-0.19152 2.1067,-0.57456 3.8304,-1.6279 5.2668,-2.8728 3.0643,-2.2982 5.5541,-5.171 7.8523,-8.0438 2.2982,-2.8728 4.3092,-5.9371 6.4159,-9.0014 v -0.19152 c 0.38304,-0.67032 0.0958,-1.5322 -0.57456,-1.9152 z m -36.006,-14.172 0.38304,0.0958 c 0.38304,0 0,0.19152 -0.38304,-0.0958 z"
       style="font-variant-ligatures:normal;stroke:#8f00ff;stroke-width:3.05900002;stroke-miterlimit:2"
       id="path211931" /><path
       stroke-miterlimit="2"
       d="m 440.99,441.66 0.0958,-0.19152 c 0.38304,-0.4788 0.86184,-0.9576 1.3406,-1.4364 0.4788,-0.57456 1.0534,-0.9576 1.5322,-1.5322 l 1.7237,-1.3406 c 0.4788,-0.4788 1.0534,-1.0534 1.3406,-1.6279 l 0.19152,-0.19152 c 0.4788,-0.9576 0.4788,-2.2025 -0.19152,-3.1601 -0.86184,-1.2449 -2.6813,-1.5322 -4.0219,-0.67032 -0.76608,0.57456 -1.2449,1.1491 -1.7237,1.8194 -0.4788,0.76608 -0.86184,1.4364 -1.2449,2.2025 -0.38304,0.76608 -0.76608,1.5322 -1.0534,2.394 -0.28728,0.86184 -0.57456,1.7237 -0.57456,2.6813 -0.0958,0.4788 0.0958,0.9576 0.4788,1.2449 0.67032,0.4788 1.5322,0.38304 2.1067,-0.19152 z m 17.141,12.162 c -0.57456,-0.57456 -1.4364,-0.57456 -2.011,0 h -0.0958 c -3.1601,3.1601 -6.6074,5.9371 -10.246,8.5226 -1.8194,1.2449 -3.7346,2.4898 -5.6498,3.4474 -1.9152,0.9576 -4.0219,1.9152 -5.9371,2.2025 -0.28728,0 -0.4788,0.0958 -0.76608,0.0958 h -0.66 c -0.4788,0 -0.86184,0 -1.1491,-0.19152 -0.67032,-0.19152 -0.76608,-0.4788 -0.86184,-1.1491 -0.19152,-1.3406 0.4788,-3.4474 1.3406,-5.2668 0.76608,-1.9152 1.8194,-3.8304 2.8728,-5.6498 0.57456,-0.86184 1.1491,-1.8194 1.7237,-2.5855 0.28728,-0.4788 0.67032,-0.86184 0.86184,-1.2449 0.0958,-0.4788 0.19152,-1.0534 -0.19152,-1.9152 l -0.28728,-0.9576 c -0.19152,-0.67032 -0.76608,-1.1491 -1.5322,-1.2449 -1.1491,-0.0958 -1.9152,0.19152 -2.394,0.57456 -0.4788,0.4788 -0.86184,1.0534 -1.1491,1.5322 -0.67032,1.0534 -1.3406,2.1067 -1.9152,3.1601 -1.0534,2.1067 -2.011,4.3092 -2.5855,6.7032 -0.38304,1.1491 -0.67032,2.394 -0.76608,3.7346 -0.0958,1.2449 -0.19152,2.6813 0.28728,4.2134 0.28728,0.76608 0.67032,1.5322 1.3406,2.2025 0.67032,0.57456 1.5322,1.0534 2.2982,1.2449 0.86184,0.0958 1.5322,0.0958 2.2025,0 l 1.0534,-0.0958 c 0.28728,0 0.57456,-0.0958 0.86184,-0.19152 2.4898,-0.67032 4.5965,-1.6279 6.6074,-2.8728 2.011,-1.1491 3.9262,-2.394 5.8414,-3.7346 1.9152,-1.2449 3.6389,-2.6813 5.4583,-4.1177 1.8194,-1.3406 3.5431,-2.777 5.3626,-4.3092 l 0.0958,-0.0958 c 0.57456,-0.57456 0.57456,-1.4364 0,-2.011 z"
       style="font-variant-ligatures:normal;stroke:#8f00ff;stroke-width:3.05900002;stroke-miterlimit:2"
       id="path211933" /><path
       stroke-miterlimit="2"
       d="m 499.48,453.54 c -0.76608,-0.38304 -1.6279,-0.0958 -1.9152,0.67032 h -0.0958 c -1.7237,3.4474 -4.1177,6.799 -6.8947,9.576 -2.777,2.6813 -6.3202,4.788 -9.7675,4.5965 -2.2025,0.76608 0.19152,-4.0219 1.9152,-7.2778 0.9576,-1.8194 1.9152,-3.5431 2.8728,-5.4583 0.86184,-2.011 1.7237,-3.9262 1.9152,-6.5117 v -0.9576 c 0,-0.28728 0,-0.67032 -0.0958,-1.0534 l -0.0958,-0.57456 -0.19152,-0.57456 c -0.0958,-0.4788 -0.28728,-0.86184 -0.57456,-1.2449 -0.19152,-0.4788 -0.67032,-0.76608 -1.0534,-1.0534 -0.38304,-0.28728 -0.76608,-0.4788 -1.1491,-0.67032 -0.38304,0 -0.76608,-0.0958 -1.1491,-0.19152 h -1.0534 c -2.4898,0.28728 -4.5007,1.0534 -6.4159,2.011 -3.8304,1.9152 -7.182,4.5007 -10.342,7.182 -3.1601,2.5855 -6.1286,5.4583 -9.0972,8.3311 l -1.4364,1.4364 1.1491,-1.9152 3.2558,-5.171 c 1.1491,-1.7237 2.1067,-3.5431 2.2025,-5.9371 v -0.0958 c 0,-0.19152 -0.0958,-0.4788 -0.19152,-0.76608 -0.38304,-0.76608 -1.3406,-1.1491 -2.2025,-0.76608 -2.2982,1.0534 -3.5431,2.6813 -4.6922,4.5965 -1.0534,1.7237 -2.1067,3.6389 -3.0643,5.5541 -0.9576,1.9152 -1.9152,3.8304 -2.6813,5.8414 -0.67032,2.011 -1.3406,4.1177 -1.3406,6.5117 -0.19152,0.57456 0,1.1491 0.4788,1.5322 0.57456,0.57456 1.5322,0.4788 2.011,-0.19152 5.171,-6.2244 10.821,-12.066 17.141,-17.237 3.0643,-2.4898 6.4159,-4.8838 9.959,-6.5117 1.7237,-0.67032 3.6389,-1.4364 5.171,-1.1491 l 0.57456,0.0958 0.28728,0.28728 c 0.0958,0 0.0958,0.0958 0.0958,0.0958 0,0.0958 0,0.0958 -0.0958,0.19152 -0.0958,0.0958 -0.19152,0.76608 -0.4788,1.5322 l -2.1067,5.0753 c -0.76608,1.8194 -1.5322,3.6389 -2.2982,5.6498 -0.67032,1.9152 -1.4364,3.9262 -1.8194,6.3202 -0.0958,1.1491 -0.38304,2.4898 0.38304,4.2134 0.0958,0.38304 0.4788,0.76608 0.86184,1.1491 0.38304,0.28728 0.76608,0.57456 1.1491,0.67032 0.86184,0.28728 1.5322,0.28728 2.2025,0.28728 2.394,-0.0958 4.5965,-0.9576 6.5117,-2.1067 1.9152,-1.0534 3.5431,-2.4898 5.0753,-3.9262 1.4364,-1.5322 2.8728,-3.1601 4.1177,-4.788 1.2449,-1.7237 2.394,-3.3516 3.5431,-5.2668 v -0.0958 c 0.38304,-0.67032 0.0958,-1.5322 -0.57456,-1.9152 z"
       style="font-variant-ligatures:normal;stroke:#8f00ff;stroke-width:3.05900002;stroke-miterlimit:2"
       id="path211935" /><path
       stroke-miterlimit="2"
       d="m 555.15,453.54 c -0.67032,-0.28728 -1.5322,0 -1.8194,0.76608 h -0.0958 c -1.9152,4.5965 -4.405,9.0014 -7.2778,13.119 -1.3406,2.1067 -2.9686,4.0219 -4.5965,5.8414 -1.7237,1.7237 -3.5431,3.3516 -5.6498,4.5965 -2.011,1.1491 -4.3092,1.9152 -6.4159,1.7237 -0.9576,-0.0958 -1.7237,-0.4788 -2.2982,-1.1491 -0.4788,-0.67032 -0.86184,-1.5322 -1.0534,-2.6813 -0.38304,-2.1067 -0.19152,-4.5965 0.28728,-6.9905 0.38304,-2.394 1.0534,-4.788 1.8194,-7.182 2.8728,-9.576 6.9905,-18.865 11.108,-28.058 4.2134,-9.193 8.6184,-18.194 11.97,-27.866 0.38304,-0.38304 0.38304,-1.0534 0.0958,-1.6279 -0.38304,-0.67032 -1.2449,-0.86184 -2.011,-0.4788 -0.9576,0.67032 -1.4364,1.2449 -2.011,1.8194 l -1.4364,1.8194 c -0.9576,1.1491 -1.8194,2.394 -2.6813,3.6389 -1.7237,2.394 -3.4474,4.8838 -5.0753,7.3735 l -9.7675,14.939 c -3.5431,5.2668 -7.0862,10.629 -10.725,15.896 -0.57456,-1.5322 -1.7237,-3.0643 -3.3516,-3.8304 -0.38304,-0.28728 -0.76608,-0.4788 -1.2449,-0.57456 -0.38304,-0.19152 -0.86184,-0.38304 -1.3406,-0.38304 -0.38304,-0.0958 -0.86184,-0.28728 -1.3406,-0.28728 -0.38304,-0.0958 -0.86184,-0.0958 -1.3406,-0.0958 -1.9152,0 -3.8304,0.4788 -5.3626,1.4364 -1.5322,0.9576 -2.6813,2.2025 -3.8304,3.4474 -1.0534,1.2449 -2.011,2.5855 -2.8728,3.9262 -0.76608,1.4364 -1.5322,2.8728 -2.1067,4.3092 -1.2449,2.8728 -2.2025,5.9371 -2.6813,9.0972 -0.19152,1.6279 -0.28728,3.2558 0,5.0753 0.19152,0.86184 0.38304,1.7237 0.9576,2.6813 0.4788,0.86184 1.4364,1.8194 2.5855,2.1067 0.28728,0.0958 0.57456,0.0958 0.86184,0.0958 0.28728,0 0.4788,0.0958 0.86184,0.0958 0.28728,-0.0958 0.57456,-0.0958 0.86184,-0.19152 l 0.67032,-0.28728 c 0.86184,-0.4788 1.5322,-0.9576 2.2025,-1.4364 1.1491,-1.0534 2.2982,-2.2025 3.2558,-3.3516 2.1067,-2.2025 3.9262,-4.5965 5.7456,-6.9905 l 6.0329,-8.4269 c 0,0.9576 -0.0958,1.9152 -0.28728,2.9686 v 0.28728 c 0.0958,0.86184 0.76608,1.4364 1.5322,1.3406 0.76608,0 1.4364,-0.67032 1.3406,-1.4364 -0.0958,-2.1067 0,-4.3092 -0.28728,-6.5117 3.9262,-5.8414 7.8523,-11.778 11.778,-17.716 2.5855,-3.8304 5.0753,-7.6608 7.565,-11.395 l -3.7346,8.2354 c -2.011,4.788 -3.9262,9.4802 -5.5541,14.364 -1.7237,4.8838 -3.3516,9.8633 -4.5007,14.939 -0.57456,2.4898 -1.1491,5.0753 -1.4364,7.6608 -0.28728,2.6813 -0.4788,5.3626 0.0958,8.2354 0.28728,1.4364 0.86184,2.9686 2.011,4.2134 1.2449,1.3406 2.9686,1.9152 4.5007,2.011 1.5322,0 2.9686,-0.19152 4.3092,-0.67032 1.3406,-0.38304 2.5855,-0.9576 3.7346,-1.7237 4.6922,-2.8728 7.9481,-7.0862 11.012,-11.3 1.4364,-2.1067 2.8728,-4.405 4.1177,-6.6074 1.3406,-2.2025 2.4898,-4.5007 3.6389,-6.8947 0.28728,-0.76608 0,-1.6279 -0.76608,-1.9152 z m -47.305,8.7142 c -1.7237,2.2982 -3.6389,4.5965 -5.5541,6.7032 -1.0534,1.0534 -2.011,2.1067 -3.1601,2.9686 -0.4788,0.38304 -1.0534,0.76608 -1.5322,0.9576 -0.0958,0.0958 -0.19152,0.0958 -0.28728,0.0958 -0.0958,0.0958 -0.19152,0.0958 -0.28728,0.0958 -0.0958,-0.0958 -0.38304,-0.0958 -0.4788,-0.19152 -0.28728,-0.0958 -0.4788,-0.28728 -0.67032,-0.67032 -0.19152,-0.38304 -0.28728,-0.9576 -0.28728,-1.5322 -0.0958,-1.1491 0.19152,-2.4898 0.4788,-3.8304 0.67032,-2.6813 1.8194,-5.2668 3.1601,-7.6608 1.3406,-2.394 2.9686,-4.6922 4.6922,-6.6074 0.86184,-1.0534 1.9152,-1.8194 2.8728,-2.5855 0.86184,-0.67032 1.7237,-1.4364 2.777,-1.9152 0.9576,-0.4788 2.394,-0.67032 3.3516,-0.28728 1.0534,0.38304 1.9152,1.2449 2.394,2.394 0.19152,0.38304 0.28728,0.86184 0.4788,1.3406 -2.5855,3.6389 -5.171,7.182 -7.9481,10.725 z"
       style="font-variant-ligatures:normal;stroke:#8f00ff;stroke-width:3.05900002;stroke-miterlimit:2"
       id="path211937" /><path
       stroke-miterlimit="2"
       d="m 582.22,453.83 c -0.4788,-0.57456 -1.4364,-0.57456 -2.011,0 -2.2982,2.1067 -4.8838,4.1177 -7.4693,5.9371 -2.6813,1.8194 -5.4583,3.4474 -8.3311,4.6922 -2.8728,1.2449 -5.9371,2.1067 -8.9057,2.1067 -0.67032,0 -1.3406,-0.19152 -2.1067,-0.28728 -0.57456,-0.19152 -1.1491,-0.38304 -1.5322,-0.67032 -0.28728,-0.28728 -0.4788,-0.57456 -0.4788,-0.9576 -0.0958,-0.38304 0,-0.86184 0.0958,-1.4364 0.38304,-1.1491 1.0534,-2.4898 1.8194,-3.7346 0.4788,-0.76608 1.0534,-1.4364 1.6279,-2.2025 1.4364,0.28728 2.9686,0.28728 4.2134,-0.19152 1.9152,-0.57456 3.3516,-1.7237 4.6922,-3.0643 0.57456,-0.67032 1.1491,-1.4364 1.6279,-2.2025 0.57456,-0.86184 1.0534,-1.8194 1.1491,-3.1601 0.0958,-0.67032 0,-1.5322 -0.57456,-2.394 -0.4788,-0.86184 -1.4364,-1.4364 -2.2025,-1.6279 -0.38304,-0.19152 -0.67032,-0.28728 -1.2449,-0.28728 -0.67032,0 -0.9576,0.0958 -1.3406,0.19152 -0.67032,0.19152 -1.2449,0.38304 -1.7237,0.67032 -1.8194,0.9576 -3.0643,2.2025 -4.3092,3.3516 -1.2449,1.2449 -2.394,2.5855 -3.4474,4.0219 -2.011,2.8728 -3.8304,5.8414 -4.5007,9.8633 -0.0958,0.9576 -0.19152,2.1067 0.19152,3.3516 0.38304,1.1491 1.3406,2.2982 2.394,2.8728 0.9576,0.67032 2.011,0.86184 2.9686,0.9576 0.9576,0.0958 1.9152,0.19152 2.777,0.0958 1.8194,-0.0958 3.5431,-0.4788 5.171,-0.9576 1.6279,-0.4788 3.1601,-1.1491 4.6922,-1.8194 6.1286,-2.9686 11.395,-6.799 16.662,-11.012 l 0.0958,-0.0958 c 0.57456,-0.4788 0.57456,-1.4364 0,-2.011 z m -19.53,-4.98 c 0.0958,0.0958 0.0958,0.38304 0.0958,0.67032 -0.19152,-0.0958 -0.0958,-0.0958 -0.0958,-0.19152 0,0 -0.19152,-0.19152 -0.19152,-0.38304 0,-0.19152 0.0958,-0.19152 0.19152,-0.0958 z m -0.28728,1.1491 0.28728,-0.28728 h 0.0958 c 0,0.19152 -0.0958,0.4788 -0.0958,0.76608 -0.19152,0.57456 -0.57456,1.2449 -0.9576,1.8194 -0.86184,1.1491 -2.011,2.011 -3.3516,2.4898 -0.4788,0.0958 -0.9576,0.19152 -1.4364,0.19152 l 2.2025,-2.2982 c 1.0534,-1.0534 2.2982,-2.011 3.2558,-2.6813 z"
       style="font-variant-ligatures:normal;stroke:#8f00ff;stroke-width:3.05900002;stroke-miterlimit:2"
       id="path211939" /><path
       stroke-miterlimit="2"
       d="m 613.84,449.71 c -0.76608,-0.19152 -1.5322,0.19152 -1.8194,0.9576 v 0.0958 c -0.57456,2.1067 -2.5855,4.2134 -4.405,4.0219 -2.011,0 -2.777,-1.5322 -3.6389,-3.6389 -0.4788,-0.9576 -0.86184,-2.2025 -1.5322,-3.5431 -0.57456,-1.2449 -1.3406,-2.6813 -3.0643,-3.9262 -0.4788,-0.28728 -0.9576,-0.4788 -1.5322,-0.67032 -0.4788,-0.19152 -1.0534,-0.28728 -1.5322,-0.28728 l -0.86184,0.0958 c -0.19152,0 -0.38304,0 -0.57456,0.0958 -0.4788,0.0958 -0.86184,0.19152 -1.2449,0.38304 -1.5322,0.57456 -2.777,1.2449 -4.0219,1.9152 -4.6922,3.1601 -8.2354,7.2778 -11.778,11.204 -0.4788,0.67032 -0.9576,1.2449 -1.5322,1.9152 l 1.1491,-2.1067 c 1.2449,-2.2982 2.6813,-4.5007 4.0219,-6.7032 0.67032,-1.1491 1.3406,-2.2982 2.011,-3.3516 0.76608,-1.0534 1.2449,-2.2982 0.9576,-4.0219 v -0.28732 c -0.28728,-1.0534 -1.2449,-1.6279 -2.2982,-1.3406 -1.8194,0.38304 -2.777,1.4364 -3.4474,2.5855 -0.76608,1.1491 -1.4364,2.2982 -2.1067,3.4474 -1.4364,2.394 -2.5855,4.788 -3.8304,7.2778 -2.2982,4.8838 -4.2134,10.055 -5.171,15.513 -0.19152,0.67032 0,1.3406 0.57456,1.7237 0.67032,0.38304 1.6279,0.19152 2.011,-0.4788 2.777,-4.405 5.9371,-8.7142 9.3845,-12.64 1.7237,-2.011 3.5431,-3.9262 5.4583,-5.6498 1.8194,-1.8194 3.9262,-3.4474 6.0329,-4.6922 1.0534,-0.57456 2.2025,-1.1491 3.2558,-1.1491 0.28728,0 0.57456,0 0.76608,0.0958 0.0958,0 0.28728,0 0.38304,0.0958 l 0.19152,0.0958 c 0.0958,0.0958 0.19152,0.19152 0.28728,0.38304 0.0958,0 0.0958,0.19152 0.19152,0.38304 0.28728,0.57456 0.67032,1.5322 1.2449,2.5855 0.4788,1.1491 1.0534,2.394 1.9152,3.6389 0.86184,1.2449 1.9152,2.5855 3.5431,3.5431 0.4788,0.19152 0.86184,0.38304 1.3406,0.57456 l 1.3406,0.28728 c 0.86184,0.0958 1.7237,0.0958 2.5855,-0.0958 1.7237,-0.38304 3.1601,-1.4364 4.1177,-2.5855 1.0534,-1.1491 1.8194,-2.2982 2.4898,-3.7346 l 0.19152,-0.28728 c 0.19152,-0.76608 -0.28728,-1.5322 -1.0534,-1.7237 z"
       style="font-variant-ligatures:normal;stroke:#8f00ff;stroke-width:3.05900002;stroke-miterlimit:2"
       id="path211941" /><path
       stroke-miterlimit="2"
       d="m 679.5,453.83 c -0.57456,-0.57456 -1.5322,-0.57456 -2.011,0 l -0.0958,0.0958 c -7.182,7.3735 -14.939,14.268 -22.982,20.78 -4.0219,3.2558 -8.2354,6.2244 -12.545,9.193 -4.3092,2.8728 -8.6184,5.5541 -13.215,7.9481 -4.5965,2.2982 -9.3845,4.2134 -14.268,5.171 -2.394,0.4788 -4.788,0.67032 -7.2778,0.4788 -2.394,-0.19152 -4.788,-0.67032 -6.8947,-1.5322 -2.1067,-0.76608 -3.8304,-2.1067 -5.0753,-3.7346 -1.1491,-1.6279 -1.9152,-3.6389 -2.1067,-5.8414 -0.57456,-4.5007 0.4788,-9.3845 1.9152,-14.077 3.1601,-9.4802 8.3311,-18.386 13.981,-26.909 5.7456,-8.4269 12.162,-16.375 19.439,-23.557 3.5431,-3.6389 7.3735,-6.9905 11.3,-10.151 2.011,-1.5322 4.0219,-2.9686 6.2244,-4.1177 2.1067,-1.2449 4.405,-2.2025 6.7032,-2.5855 2.2982,-0.38304 4.788,-0.28728 6.5117,0.9576 1.7237,1.1491 2.5855,3.3516 2.5855,5.6498 -0.0958,2.2982 -0.86184,4.6922 -2.1067,6.799 -1.1491,2.1067 -2.8728,4.0219 -4.788,5.4583 v 0.0958 h -0.0958 c -0.57456,0.57456 -0.57456,1.4364 -0.0958,2.011 0.57456,0.57456 1.4364,0.67032 2.1067,0.0958 2.011,-1.8194 3.7346,-3.9262 5.171,-6.4159 1.3406,-2.394 2.2025,-5.0753 2.2982,-7.9481 0.0958,-1.4364 -0.0958,-2.9686 -0.67032,-4.405 -0.57456,-1.4364 -1.5322,-2.6813 -2.777,-3.6389 -1.3406,-0.86184 -2.777,-1.4364 -4.2134,-1.7237 -1.4364,-0.28728 -2.8728,-0.28728 -4.3092,-0.19152 -5.7456,0.67032 -10.725,3.2558 -15.322,6.0329 -4.5965,2.8728 -8.7142,6.2244 -12.545,9.8633 -7.7566,7.3735 -14.556,15.513 -20.588,24.323 -2.9686,4.3092 -5.7456,8.9057 -8.1396,13.694 -2.4898,4.6922 -4.6922,9.6718 -6.3202,14.843 -0.76608,2.5855 -1.4364,5.2668 -1.8194,8.0438 -0.38304,2.777 -0.57456,5.6498 -0.0958,8.6184 0.38304,2.8728 1.5322,5.9371 3.6389,8.4269 2.011,2.394 4.788,4.0219 7.565,4.8838 2.8728,0.86184 5.6498,1.1491 8.4269,1.1491 1.3406,0 2.777,-0.0958 4.1177,-0.28728 1.4364,-0.19152 2.777,-0.4788 4.1177,-0.76608 5.2668,-1.4364 10.055,-3.6389 14.747,-6.2244 9.2887,-4.9795 17.716,-11.204 25.951,-17.716 4.0219,-3.2558 8.0438,-6.6074 11.97,-10.151 3.9262,-3.4474 7.7566,-6.8947 11.587,-10.534 v -0.0958 c 0.57456,-0.57456 0.57456,-1.4364 0,-2.011 z"
       style="font-variant-ligatures:normal;stroke:#8f00ff;stroke-width:3.05900002;stroke-miterlimit:2"
       id="path211943" /><path
       stroke-miterlimit="2"
       d="m 712.91,453.63 c -0.67032,-0.38304 -1.5322,-0.19152 -2.011,0.4788 0.0958,0 -0.0958,0.19152 -0.19152,0.28728 -0.0958,0.0958 -0.19152,0.28728 -0.28728,0.38304 l -0.86184,0.57456 c -0.57456,0.38304 -1.3406,0.67032 -2.011,0.86184 -1.5322,0.28728 -3.1601,0.38304 -4.5007,0.0958 -0.86184,-0.19152 -1.5322,-0.4788 -2.011,-0.86184 0.0958,-0.38304 0.28728,-0.67032 0.4788,-1.1491 0.57456,-1.6279 1.2449,-3.3516 1.1491,-5.5541 -0.0958,-0.4788 -0.19152,-1.1491 -0.57456,-1.7237 -0.38304,-0.57456 -0.9576,-1.1491 -1.6279,-1.5322 -0.19152,0 -0.38304,-0.0958 -0.57456,-0.19152 0.0958,-0.57456 -0.28728,-1.1491 -0.86184,-1.3406 -0.76608,-0.67032 -1.8194,-0.76608 -2.4898,-0.67032 -0.76608,0 -1.4364,0.28728 -1.9152,0.57456 -1.1491,0.4788 -1.8194,1.2449 -2.394,2.011 -1.3406,1.4364 -2.2982,2.9686 -3.1601,4.5965 -1.7237,3.1601 -3.0643,6.5117 -3.8304,10.055 -0.19152,0.9576 -0.38304,1.9152 -0.38304,2.8728 0,1.0534 -0.0958,2.1067 0.57456,3.4474 0.38304,0.67032 1.0534,1.3406 1.9152,1.5322 0.76608,0.28728 1.4364,0.19152 2.011,0.0958 1.1491,-0.19152 2.1067,-0.67032 2.8728,-1.2449 1.6279,-1.0534 2.8728,-2.394 3.9262,-3.7346 1.0534,-1.2449 1.9152,-2.5855 2.6813,-3.9262 1.3406,0.4788 2.6813,0.67032 3.9262,0.57456 2.1067,-0.0958 3.8304,-0.57456 5.5541,-1.2449 0.9576,-0.28728 1.7237,-0.76608 2.5855,-1.2449 0.4788,-0.19152 0.86184,-0.4788 1.2449,-0.76608 l 0.57456,-0.57456 c 0.19152,-0.19152 0.38304,-0.28728 0.67032,-0.67032 0.38304,-0.67032 0.19152,-1.5322 -0.4788,-2.011 z m -13.598,-0.28728 c -0.19152,-0.4788 -0.38304,-1.0534 -0.38304,-1.6279 0,-1.0534 0,-2.1067 -0.0958,-2.6813 0,-0.19152 0,-0.28728 0.0958,-0.38304 0,-0.19152 0.28728,-0.19152 0.38304,-0.19152 0.19152,-0.0958 0.28728,0 0.38304,0.0958 0.0958,0.0958 0.19152,0.28728 0.19152,0.57456 0.19152,1.1491 -0.0958,2.777 -0.57456,4.2134 z m -8.6184,11.491 c -0.67032,0.28728 -1.2449,0.57456 -1.8194,0.57456 -0.28728,0.0958 -0.4788,0 -0.4788,0 0,0 0.0958,0 0.0958,-0.0958 -0.0958,-0.19152 -0.0958,-0.86184 0,-1.5322 0.19152,-0.67032 0.38304,-1.4364 0.67032,-2.1067 1.0534,-2.777 2.6813,-5.5541 4.3092,-8.0438 0.4788,1.8194 1.5322,3.5431 3.0643,4.6922 0.0958,0.0958 0.19152,0.0958 0.19152,0.0958 -1.6279,2.5855 -3.6389,4.9795 -6.0329,6.4159 z"
       style="font-variant-ligatures:normal;stroke:#8f00ff;stroke-width:3.05900002;stroke-miterlimit:2"
       id="path211945" /><path
       stroke-miterlimit="2"
       d="m 755.66,453.54 c -0.76608,-0.38304 -1.6279,-0.0958 -1.9152,0.67032 h -0.0958 c -1.7237,3.4474 -4.1177,6.799 -6.8947,9.576 -2.777,2.6813 -6.3202,4.788 -9.7675,4.5965 -2.2025,0.76608 0.19152,-4.0219 1.9152,-7.2778 0.9576,-1.8194 1.9152,-3.5431 2.8728,-5.4583 0.86184,-2.011 1.7237,-3.9262 1.9152,-6.5117 v -0.9576 c 0,-0.28728 0,-0.67032 -0.0958,-1.0534 l -0.0958,-0.57456 -0.19152,-0.57456 c -0.0958,-0.4788 -0.28728,-0.86184 -0.57456,-1.2449 -0.19152,-0.4788 -0.67032,-0.76608 -1.0534,-1.0534 -0.38304,-0.28728 -0.76608,-0.4788 -1.1491,-0.67032 -0.38304,0 -0.76608,-0.0958 -1.1491,-0.19152 h -1.0534 c -2.4898,0.28728 -4.5007,1.0534 -6.4159,2.011 -3.8304,1.9152 -7.182,4.5007 -10.342,7.182 -3.1601,2.5855 -6.1286,5.4583 -9.0972,8.3311 l -1.4364,1.4364 1.1491,-1.9152 3.2558,-5.171 c 1.1491,-1.7237 2.1067,-3.5431 2.2025,-5.9371 v -0.0958 c 0,-0.19152 -0.0958,-0.4788 -0.19152,-0.76608 -0.38304,-0.76608 -1.3406,-1.1491 -2.2025,-0.76608 -2.2982,1.0534 -3.5431,2.6813 -4.6922,4.5965 -1.0534,1.7237 -2.1067,3.6389 -3.0643,5.5541 -0.9576,1.9152 -1.9152,3.8304 -2.6813,5.8414 -0.67032,2.011 -1.3406,4.1177 -1.3406,6.5117 -0.19152,0.57456 0,1.1491 0.4788,1.5322 0.57456,0.57456 1.5322,0.4788 2.011,-0.19152 5.171,-6.2244 10.821,-12.066 17.141,-17.237 3.0643,-2.4898 6.4159,-4.8838 9.959,-6.5117 1.7237,-0.67032 3.6389,-1.4364 5.171,-1.1491 l 0.57456,0.0958 0.28728,0.28728 c 0.0958,0 0.0958,0.0958 0.0958,0.0958 0,0.0958 0,0.0958 -0.0958,0.19152 -0.0958,0.0958 -0.19152,0.76608 -0.4788,1.5322 l -2.1067,5.0753 c -0.76608,1.8194 -1.5322,3.6389 -2.2982,5.6498 -0.67032,1.9152 -1.4364,3.9262 -1.8194,6.3202 -0.0958,1.1491 -0.38304,2.4898 0.38304,4.2134 0.0958,0.38304 0.4788,0.76608 0.86184,1.1491 0.38304,0.28728 0.76608,0.57456 1.1491,0.67032 0.86184,0.28728 1.5322,0.28728 2.2025,0.28728 2.394,-0.0958 4.5965,-0.9576 6.5117,-2.1067 1.9152,-1.0534 3.5431,-2.4898 5.0753,-3.9262 1.4364,-1.5322 2.8728,-3.1601 4.1177,-4.788 1.2449,-1.7237 2.394,-3.3516 3.5431,-5.2668 v -0.0958 c 0.38304,-0.67032 0.0958,-1.5322 -0.57456,-1.9152 z"
       style="font-variant-ligatures:normal;stroke:#8f00ff;stroke-width:3.05900002;stroke-miterlimit:2"
       id="path211947" /><path
       stroke-miterlimit="2"
       d="m 800.48,453.54 c -0.76608,-0.38304 -1.6279,-0.0958 -1.9152,0.67032 h -0.0958 c -1.7237,3.4474 -4.1177,6.799 -6.8947,9.576 -2.777,2.6813 -6.3202,4.788 -9.7675,4.5965 -2.2025,0.76608 0.19152,-4.0219 1.9152,-7.2778 0.9576,-1.8194 1.9152,-3.5431 2.8728,-5.4583 0.86184,-2.011 1.7237,-3.9262 1.9152,-6.5117 v -0.9576 c 0,-0.28728 0,-0.67032 -0.0958,-1.0534 l -0.0958,-0.57456 -0.19152,-0.57456 c -0.0958,-0.4788 -0.28728,-0.86184 -0.57456,-1.2449 -0.19152,-0.4788 -0.67032,-0.76608 -1.0534,-1.0534 -0.38304,-0.28728 -0.76608,-0.4788 -1.1491,-0.67032 -0.38304,0 -0.76608,-0.0958 -1.1491,-0.19152 h -1.0534 c -2.4898,0.28728 -4.5007,1.0534 -6.4159,2.011 -3.8304,1.9152 -7.182,4.5007 -10.342,7.182 -3.1601,2.5855 -6.1286,5.4583 -9.0972,8.3311 l -1.4364,1.4364 1.1491,-1.9152 3.2558,-5.171 c 1.1491,-1.7237 2.1067,-3.5431 2.2025,-5.9371 v -0.0958 c 0,-0.19152 -0.0958,-0.4788 -0.19152,-0.76608 -0.38304,-0.76608 -1.3406,-1.1491 -2.2025,-0.76608 -2.2982,1.0534 -3.5431,2.6813 -4.6922,4.5965 -1.0534,1.7237 -2.1067,3.6389 -3.0643,5.5541 -0.9576,1.9152 -1.9152,3.8304 -2.6813,5.8414 -0.67032,2.011 -1.3406,4.1177 -1.3406,6.5117 -0.19152,0.57456 0,1.1491 0.4788,1.5322 0.57456,0.57456 1.5322,0.4788 2.011,-0.19152 5.171,-6.2244 10.821,-12.066 17.141,-17.237 3.0643,-2.4898 6.4159,-4.8838 9.959,-6.5117 1.7237,-0.67032 3.6389,-1.4364 5.171,-1.1491 l 0.57456,0.0958 0.28728,0.28728 c 0.0958,0 0.0958,0.0958 0.0958,0.0958 0,0.0958 0,0.0958 -0.0958,0.19152 -0.0958,0.0958 -0.19152,0.76608 -0.4788,1.5322 l -2.1067,5.0753 c -0.76608,1.8194 -1.5322,3.6389 -2.2982,5.6498 -0.67032,1.9152 -1.4364,3.9262 -1.8194,6.3202 -0.0958,1.1491 -0.38304,2.4898 0.38304,4.2134 0.0958,0.38304 0.4788,0.76608 0.86184,1.1491 0.38304,0.28728 0.76608,0.57456 1.1491,0.67032 0.86184,0.28728 1.5322,0.28728 2.2025,0.28728 2.394,-0.0958 4.5965,-0.9576 6.5117,-2.1067 1.9152,-1.0534 3.5431,-2.4898 5.0753,-3.9262 1.4364,-1.5322 2.8728,-3.1601 4.1177,-4.788 1.2449,-1.7237 2.394,-3.3516 3.5431,-5.2668 v -0.0958 c 0.38304,-0.67032 0.0958,-1.5322 -0.57456,-1.9152 z"
       style="font-variant-ligatures:normal;stroke:#8f00ff;stroke-width:3.05900002;stroke-miterlimit:2"
       id="path211949" /><path
       stroke-miterlimit="2"
       d="m 829.61,453.83 c -0.4788,-0.57456 -1.4364,-0.57456 -2.011,0 -2.2982,2.1067 -4.8838,4.1177 -7.4693,5.9371 -2.6813,1.8194 -5.4583,3.4474 -8.3311,4.6922 -2.8728,1.2449 -5.9371,2.1067 -8.9057,2.1067 -0.67032,0 -1.3406,-0.19152 -2.1067,-0.28728 -0.57456,-0.19152 -1.1491,-0.38304 -1.5322,-0.67032 -0.28728,-0.28728 -0.4788,-0.57456 -0.4788,-0.9576 -0.0958,-0.38304 0,-0.86184 0.0958,-1.4364 0.38304,-1.1491 1.0534,-2.4898 1.8194,-3.7346 0.4788,-0.76608 1.0534,-1.4364 1.6279,-2.2025 1.4364,0.28728 2.9686,0.28728 4.2134,-0.19152 1.9152,-0.57456 3.3516,-1.7237 4.6922,-3.0643 0.57456,-0.67032 1.1491,-1.4364 1.6279,-2.2025 0.57456,-0.86184 1.0534,-1.8194 1.1491,-3.1601 0.0958,-0.67032 0,-1.5322 -0.57456,-2.394 -0.4788,-0.86184 -1.4364,-1.4364 -2.2025,-1.6279 -0.38304,-0.19152 -0.67032,-0.28728 -1.2449,-0.28728 -0.67032,0 -0.9576,0.0958 -1.3406,0.19152 -0.67032,0.19152 -1.2449,0.38304 -1.7237,0.67032 -1.8194,0.9576 -3.0643,2.2025 -4.3092,3.3516 -1.2449,1.2449 -2.394,2.5855 -3.4474,4.0219 -2.011,2.8728 -3.8304,5.8414 -4.5007,9.8633 -0.0958,0.9576 -0.19152,2.1067 0.19152,3.3516 0.38304,1.1491 1.3406,2.2982 2.394,2.8728 0.9576,0.67032 2.011,0.86184 2.9686,0.9576 0.9576,0.0958 1.9152,0.19152 2.777,0.0958 1.8194,-0.0958 3.5431,-0.4788 5.171,-0.9576 1.6279,-0.4788 3.1601,-1.1491 4.6922,-1.8194 6.1286,-2.9686 11.395,-6.799 16.662,-11.012 l 0.0958,-0.0958 c 0.57456,-0.4788 0.57456,-1.4364 0,-2.011 z m -19.53,-4.98 c 0.0958,0.0958 0.0958,0.38304 0.0958,0.67032 -0.19152,-0.0958 -0.0958,-0.0958 -0.0958,-0.19152 0,0 -0.19152,-0.19152 -0.19152,-0.38304 0,-0.19152 0.0958,-0.19152 0.19152,-0.0958 z m -0.28728,1.1491 0.28728,-0.28728 h 0.0958 c 0,0.19152 -0.0958,0.4788 -0.0958,0.76608 -0.19152,0.57456 -0.57456,1.2449 -0.9576,1.8194 -0.86184,1.1491 -2.011,2.011 -3.3516,2.4898 -0.4788,0.0958 -0.9576,0.19152 -1.4364,0.19152 l 2.2025,-2.2982 c 1.0534,-1.0534 2.2982,-2.011 3.2558,-2.6813 z"
       style="font-variant-ligatures:normal;stroke:#8f00ff;stroke-width:3.05900002;stroke-miterlimit:2"
       id="path211951" /><path
       stroke-miterlimit="2"
       d="m 867.68,454.11 c -0.38304,-0.67032 -1.3406,-0.86184 -2.011,-0.4788 -3.1601,2.2025 -6.4159,4.3092 -9.7675,6.1286 -3.3516,1.9152 -6.799,3.7346 -10.246,5.3626 -3.5431,1.6279 -7.0862,3.0643 -10.629,4.1177 -1.8194,0.4788 -3.7346,0.86184 -5.4583,0.9576 -1.8194,0.19152 -3.6389,0.0958 -4.788,-0.57456 -0.67032,-0.28728 -0.86184,-0.67032 -1.0534,-1.0534 -0.19152,-0.38304 -0.28728,-0.9576 -0.19152,-1.6279 0.19152,-1.2449 0.76608,-2.8728 1.6279,-4.3092 1.7237,-3.0643 4.2134,-5.7456 6.7032,-8.4269 2.4898,-2.5855 4.9795,-5.2668 8.1396,-6.799 1.5322,-0.76608 3.2558,-1.1491 4.5965,-0.86184 1.4364,0.38304 1.6279,1.3406 0.67032,2.4898 h -0.0958 c 0,0 0,0.0958 -0.0958,0.19152 -0.38304,0.57456 -0.19152,1.5322 0.4788,1.9152 0.67032,0.4788 1.5322,0.28728 2.011,-0.38304 0.57456,-1.0534 1.1491,-2.394 0.86184,-3.9262 -0.4788,-1.5322 -1.7237,-2.4898 -2.8728,-2.8728 -2.394,-0.86184 -4.6922,-0.4788 -6.799,0 -4.2134,1.1491 -7.8523,3.4474 -10.917,6.2244 -2.9686,2.777 -5.5541,6.0329 -7.4693,9.959 -0.86184,2.011 -1.6279,4.1177 -1.6279,6.7032 0,1.2449 0.28728,2.6813 1.1491,4.0219 0.86184,1.2449 2.1067,2.1067 3.3516,2.4898 0.57456,0.28728 1.2449,0.28728 1.8194,0.4788 0.57456,0 1.1491,0.0958 1.7237,0.0958 l 1.6279,-0.0958 1.5322,-0.19152 c 2.011,-0.4788 4.0219,-0.9576 5.9371,-1.6279 3.7346,-1.2449 7.3735,-2.777 10.821,-4.5965 7.0862,-3.4474 13.789,-7.3735 20.493,-11.3 0,0 0.0958,0 0.0958,-0.0958 0.67032,-0.38304 0.86184,-1.2449 0.38304,-1.9152 z"
       style="font-variant-ligatures:normal;stroke:#8f00ff;stroke-width:3.05900002;stroke-miterlimit:2"
       id="path211953" /><path
       stroke-miterlimit="2"
       d="m 927.62,417.63 c -6.5117,-2.2982 -13.502,-3.1601 -20.397,-3.3516 -3.3516,-0.0958 -6.799,0 -10.246,0.19152 -1.6279,0.0958 -3.3516,0.28728 -5.0753,0.38304 l 3.4474,-4.8838 c 0.86184,-1.2449 1.7237,-2.394 2.5855,-3.4474 0.9576,-1.1491 1.7237,-2.2025 1.6279,-4.1177 v -0.47884 c 0,-0.9576 -0.86184,-1.7237 -1.9152,-1.6279 -2.2025,0.19152 -3.2558,1.4364 -4.2134,2.5855 -0.9576,1.2449 -1.8194,2.4898 -2.6813,3.7346 -1.8194,2.4898 -3.4474,4.9795 -5.0753,7.4693 -0.38304,0.57456 -0.67032,1.1491 -1.0534,1.6279 -5.9371,0.86184 -11.874,1.8194 -17.716,2.9686 -3.2558,0.57456 -6.6074,1.2449 -9.7675,1.7237 -1.6279,0.19152 -3.2558,0.4788 -4.8838,0.57456 -1.5322,0.0958 -3.1601,0 -4.2134,-0.38304 h -0.19152 c -0.67032,-0.28728 -1.3406,0 -1.7237,0.57456 -0.38304,0.67032 -0.19152,1.5322 0.57456,1.9152 1.9152,1.1491 3.7346,1.3406 5.5541,1.5322 1.8194,0.0958 3.5431,0 5.2668,0 3.4474,-0.19152 6.799,-0.57456 10.151,-0.9576 l 13.119,-1.7237 c -1.5322,2.4898 -2.9686,5.0753 -4.405,7.565 -5.7456,10.534 -11.204,21.163 -15.417,32.558 -0.9576,2.777 -1.9152,5.6498 -2.6813,8.6184 -0.76608,2.9686 -1.4364,6.0329 -1.2449,9.3845 0.19152,1.6279 0.4788,3.4474 1.9152,5.0753 0.67032,0.67032 1.5322,1.3406 2.4898,1.6279 0.4788,0.19152 0.9576,0.19152 1.3406,0.28728 0.4788,0 0.9576,0.0958 1.3406,0 1.9152,-0.0958 3.4474,-0.76608 4.8838,-1.4364 1.4364,-0.76608 2.6813,-1.6279 3.9262,-2.5855 4.8838,-3.8304 8.8099,-8.3311 12.64,-12.928 3.8304,-4.6922 7.3735,-9.4802 10.821,-14.46 0.38304,-0.67032 0.19152,-1.5322 -0.4788,-2.011 -0.67032,-0.38304 -1.5322,-0.19152 -1.9152,0.4788 h -0.0958 c -3.1601,4.8838 -6.6074,9.7675 -10.342,14.268 -3.7346,4.5965 -7.7566,8.9057 -12.257,12.449 -1.1491,0.86184 -2.394,1.6279 -3.5431,2.2025 -1.2449,0.67032 -2.5855,1.0534 -3.6389,1.0534 -1.2449,0.0958 -2.2982,-0.28728 -2.8728,-1.0534 -0.57456,-0.67032 -0.86184,-1.9152 -0.9576,-3.1601 -0.0958,-2.6813 0.57456,-5.5541 1.3406,-8.2354 0.76608,-2.777 1.8194,-5.5541 2.8728,-8.2354 2.2982,-5.4583 4.8838,-10.725 7.6608,-15.896 2.777,-5.171 5.6498,-10.342 8.7142,-15.417 2.2982,-3.7346 4.5965,-7.3735 6.9905,-11.012 6.4159,-0.76608 12.928,-1.4364 19.439,-1.6279 6.5117,-0.28728 13.023,0 19.535,0.9576 h 0.0958 c 0.67032,0.0958 1.3406,-0.28728 1.5322,-0.9576 0.28728,-0.67032 -0.0958,-1.5322 -0.86184,-1.8194 z"
       style="font-variant-ligatures:normal;stroke:#8f00ff;stroke-width:3.05900002;stroke-miterlimit:2"
       id="path211955" /><path
       style="stroke-width:1.11749995"
       d="m 580.99,199.78 c -0.52129,-0.0161 -0.9351,0.006 -1.2589,0.0665 -0.26531,0.0503 -0.65675,0.15035 -0.86987,0.22181 -0.2131,0.0714 -0.59709,0.23921 -0.8537,0.3728 -0.25598,0.13296 -0.62009,0.36347 -0.80773,0.51135 -0.18826,0.14788 -20.655,21.087 -45.481,46.53 l -45.137,46.261 -0.11064,-0.37995 c -0.0603,-0.20876 -0.19571,-0.61822 -0.30134,-0.90838 -0.105,-0.29078 -0.33179,-0.81457 -0.5039,-1.1643 -0.17149,-0.34981 -0.48961,-0.90342 -0.70584,-1.2296 -0.21684,-0.32619 -0.55982,-0.79467 -0.76237,-1.0413 -0.20193,-0.24605 -0.69962,-0.7835 -1.1047,-1.1936 -0.40453,-0.4023 -0.95993,-0.9197 -1.2337,-1.1387 -0.27378,-0.21903 -0.79007,-0.59339 -1.1499,-0.8303 -0.35872,-0.23691 -1.0158,-0.60792 -1.4595,-0.82472 -0.44476,-0.21679 -1.0907,-0.4917 -1.4371,-0.61015 -0.34547,-0.11868 -0.94691,-0.28644 -1.3359,-0.3728 -0.38896,-0.0864 -1.0146,-0.19013 -1.3905,-0.23052 -0.39454,-0.0422 -1.0246,-0.0578 -1.4912,-0.0367 -0.44425,0.0199 -1.0581,0.0814 -1.3645,0.13669 -0.30569,0.0547 -0.81705,0.18329 -1.1364,0.28581 -0.31875,0.10189 -0.76486,0.26904 -0.99102,0.37032 -0.22679,0.10189 -0.63749,0.32185 -0.91399,0.48898 -0.27649,0.16713 -0.7139,0.48091 -0.97175,0.69713 -0.25785,0.2156 -6.9682,6.1828 -14.912,13.26 -8.9987,8.017 -14.564,13.018 -14.763,13.267 -0.17646,0.21933 -0.42437,0.55237 -0.55051,0.73938 -0.12613,0.18764 -0.34918,0.57784 -0.49458,0.86862 -0.14601,0.29016 -0.34049,0.73752 -0.43306,0.99413 -0.092,0.25598 -0.23548,0.74559 -0.31875,1.0873 -0.0826,0.34173 -0.18329,1.001 -0.22368,1.465 -0.0547,0.63624 -0.0553,1.05 -0.002,1.6838 0.0392,0.46226 0.14291,1.173 0.23052,1.5795 0.0876,0.40697 0.25848,1.0326 0.37964,1.3917 0.12116,0.35913 0.39641,1.0159 0.61201,1.4601 0.2156,0.44425 0.58591,1.101 0.82326,1.4601 0.23673,0.35913 0.6406,0.90403 0.89782,1.2116 0.25661,0.30756 0.74497,0.82513 1.0848,1.1501 0.33986,0.32557 0.88229,0.79033 1.2067,1.0339 0.32371,0.24356 0.8537,0.60456 1.1786,0.80276 0.32433,0.19758 0.86924,0.49147 1.2109,0.65239 0.34173,0.16155 0.86923,0.38026 1.1718,0.48651 0.30258,0.10683 0.81953,0.26096 1.1495,0.34297 0.3293,0.082 0.80897,0.1864 1.065,0.23238 0.29016,0.0515 0.9351,0.0826 1.7087,0.0814 0.94007,-10e-4 1.3781,-0.0292 1.7994,-0.11308 0.30632,-0.0615 0.82139,-0.19635 1.1439,-0.29948 0.32309,-0.10315 0.79841,-0.28457 1.0569,-0.402 0.25848,-0.11805 0.73938,-0.39393 1.0693,-0.61326 0.3641,-0.24232 1.4378,-1.1451 2.7358,-2.3008 1.1749,-1.0457 2.1697,-1.9162 2.2101,-1.9336 0.041,-0.0174 3.4241,0.84998 7.5181,1.928 4.0945,1.078 9.7231,2.5605 12.508,3.2943 2.7854,0.73379 9.7891,2.581 15.565,4.1045 5.7752,1.5235 10.78,2.8532 11.122,2.955 0.34173,0.10192 1.0966,0.2827 1.6776,0.40137 0.58094,0.11868 1.3781,0.26035 1.7708,0.31501 0.40076,0.0553 1.4017,0.11434 2.2809,0.13422 1.001,0.0224 1.8863,0.009 2.4542,-0.0391 0.48836,-0.0417 1.2936,-0.14352 1.7888,-0.22678 0.49582,-0.0833 1.2439,-0.23424 1.6633,-0.33614 0.4194,-0.10191 1.1538,-0.31315 1.6322,-0.46973 0.47781,-0.15595 1.2023,-0.42063 1.6099,-0.58839 0.40698,-0.16715 1.1054,-0.48713 1.5521,-0.71081 0.44612,-0.22429 1.1122,-0.58591 1.48,-0.80462 0.36721,-0.21808 0.97549,-0.61201 1.3514,-0.87545 0.3759,-0.26283 1.019,-0.74746 1.4291,-1.0768 0.41008,-0.32992 1.1662,-1.019 1.6807,-1.5322 0.51446,-0.5126 1.1786,-1.2259 1.4763,-1.5851 0.29761,-0.35913 0.76237,-0.96058 1.0333,-1.3365 0.27091,-0.37652 0.72013,-1.0612 0.99724,-1.5222 0.27774,-0.46103 0.69714,-1.2296 0.93199,-1.708 0.23487,-0.47843 0.56541,-1.2196 0.73442,-1.6465 0.16962,-0.42747 0.39516,-1.05 0.50203,-1.3844 0.10683,-0.33428 0.27836,-0.94008 0.38087,-1.3458 0.10315,-0.40573 0.24295,-1.0407 0.3113,-1.4116 0.0684,-0.3703 0.16837,-1.009 0.22181,-1.4191 0.0541,-0.41008 0.11308,-1.3912 0.13172,-2.1809 0.0205,-0.87484 0.004,-1.7919 -0.0403,-2.3499 -0.0404,-0.50328 -0.14104,-1.339 -0.22306,-1.8577 -0.082,-0.51881 -1.6074,-10.991 -3.3894,-23.273 l -3.2396,-22.33 1.1786,-1.1874 c 0.64804,-0.65363 12.719,-12.917 26.827,-27.252 14.106,-14.336 26.41,-26.835 27.34,-27.773 1.1954,-1.2085 1.782,-1.8491 2.0026,-2.1877 0.17148,-0.26344 0.40262,-0.69651 0.51321,-0.96182 0.11064,-0.26593 0.25288,-0.73503 0.31627,-1.0432 0.064,-0.30818 0.11618,-0.79219 0.1168,-1.0755 0,-0.28333 -0.0435,-0.72883 -0.0976,-0.9904 -0.0541,-0.26096 -0.16713,-0.65798 -0.25101,-0.88229 -0.0845,-0.22368 -0.27773,-0.60642 -0.42996,-0.85059 -0.15285,-0.2448 -0.43804,-0.61139 -0.63501,-0.81581 -0.19696,-0.20442 -0.5623,-0.50391 -0.81207,-0.66545 -0.2504,-0.16155 -0.64121,-0.37839 -0.86863,-0.48153 -0.22802,-0.10376 -0.68035,-0.25661 -1.0053,-0.34111 -0.42499,-0.10997 -0.80898,-0.15968 -1.3676,-0.1777 z m -85.712,35.615 c -0.5126,-0.0155 -1.2662,-0.005 -1.6745,0.0248 -0.40884,0.0292 -1.0519,0.0988 -1.4291,0.15347 -0.37777,0.0553 -0.99413,0.16652 -1.3701,0.24791 -0.3759,0.0808 -1.019,0.24853 -1.4291,0.37217 -0.41007,0.12426 -1.0668,0.35292 -1.4601,0.50825 -0.39268,0.15533 -1.1339,0.49582 -1.6465,0.75678 -0.51259,0.26033 -1.3097,0.72572 -1.7715,1.0339 -0.46226,0.30756 -1.1191,0.7835 -1.4601,1.0563 -0.34173,0.27339 -0.99972,0.87483 -1.4626,1.3359 -0.46289,0.46165 -1.0867,1.147 -1.3861,1.5229 -0.30011,0.3759 -0.74933,0.99102 -0.99848,1.3669 -0.24977,0.37591 -0.6381,1.019 -0.86302,1.4291 -0.22555,0.41008 -0.55422,1.0811 -0.73069,1.4912 -0.17584,0.41007 -0.4399,1.1091 -0.58653,1.5533 -0.14664,0.44425 -0.338,1.101 -0.42499,1.4601 -0.0876,0.3585 -0.21622,1.0003 -0.28518,1.4254 -0.0696,0.42498 -0.15781,1.1519 -0.19696,1.6155 -0.0416,0.48898 -0.0559,1.3123 -0.0354,1.9609 0.0199,0.61512 0.0808,1.4508 0.13482,1.8572 0.0541,0.40573 0.169,1.0737 0.25599,1.4837 0.0864,0.41008 0.25226,1.0724 0.36845,1.472 0.11619,0.40013 0.36224,1.1022 0.54614,1.5608 0.18454,0.45855 0.49148,1.1451 0.68223,1.5254 0.19137,0.38025 0.50638,0.95312 0.70023,1.2737 0.19386,0.31998 0.50701,0.80275 0.69652,1.0718 0.1895,0.26904 0.53931,0.73069 0.77853,1.0252 0.23858,0.2945 0.61822,0.7313 0.84314,0.97051 0.22554,0.23921 0.70397,0.70956 1.0631,1.0451 0.35913,0.33551 0.92702,0.82015 1.2613,1.0774 0.33489,0.25661 0.93262,0.67477 1.329,0.92826 0.39642,0.25351 1.1296,0.66669 1.6285,0.91894 0.49954,0.25227 1.2346,0.58716 1.6347,0.74497 0.39951,0.1572 1.0998,0.39517 1.5558,0.52876 0.45605,0.13296 1.1215,0.30134 1.4788,0.37342 0.35726,0.0715 0.94379,0.17398 1.3023,0.22679 0.35913,0.0528 1.2675,0.11246 2.0193,0.13172 1.0482,0.028 1.6018,0.0118 2.3741,-0.0684 0.55423,-0.0572 1.3961,-0.18392 1.8715,-0.28146 0.47469,-0.0982 1.2085,-0.28023 1.6303,-0.40511 0.42188,-0.12489 1.0898,-0.35478 1.4844,-0.51011 0.39454,-0.15596 1.0768,-0.46352 1.5167,-0.68347 0.43928,-0.21994 1.0544,-0.55733 1.3669,-0.7487 0.31191,-0.19137 0.74933,-0.47532 0.97114,-0.63065 0.22244,-0.15471 0.6698,-0.49085 0.99413,-0.74622 0.32496,-0.25537 0.9494,-0.81581 1.388,-1.2451 0.43866,-0.42934 1.0258,-1.0556 1.3048,-1.3917 0.27897,-0.33676 0.68098,-0.85371 0.89348,-1.1495 0.21249,-0.29576 0.59647,-0.88975 0.8537,-1.3197 0.25723,-0.42996 0.61698,-1.101 0.80026,-1.4912 0.1833,-0.3902 0.44923,-1.0084 0.59152,-1.3737 0.14165,-0.36535 0.35353,-0.996 0.47034,-1.4024 0.11682,-0.40573 0.28208,-1.0712 0.36783,-1.4793 0.0851,-0.4076 0.19882,-1.0911 0.25164,-1.5179 0.0534,-0.42748 0.11494,-1.1681 0.13669,-1.6465 0.023,-0.50265 0.009,-1.3017 -0.0342,-1.8919 -0.041,-0.56231 -0.12861,-1.3526 -0.19447,-1.7565 -0.0653,-0.40324 -0.18764,-1.0221 -0.2709,-1.3744 -0.0833,-0.3523 -0.25413,-0.96058 -0.37901,-1.3507 -0.12552,-0.39019 -0.3523,-1.0146 -0.50453,-1.388 -0.1516,-0.37343 -0.45542,-1.0302 -0.67538,-1.4601 -0.22015,-0.43135 -0.58334,-1.0762 -0.80795,-1.4349 -0.22574,-0.35872 -0.64257,-0.95993 -0.92753,-1.3354 -0.28518,-0.37591 -0.81083,-1.0053 -1.1681,-1.398 -0.35789,-0.39268 -0.93573,-0.96617 -1.2849,-1.2737 -0.34857,-0.30756 -0.95064,-0.79717 -1.3383,-1.088 -0.38709,-0.29079 -1.0631,-0.74436 -1.5018,-1.0078 -0.43928,-0.26344 -1.1756,-0.65923 -1.6372,-0.87918 -0.46102,-0.21995 -1.1898,-0.52689 -1.6186,-0.68098 -0.42871,-0.15471 -1.0998,-0.36659 -1.4912,-0.47035 -0.39143,-0.10438 -0.97797,-0.24418 -1.3041,-0.31066 -0.3262,-0.0671 -0.96927,-0.16403 -1.4291,-0.2156 -0.45817,-0.0525 -1.255,-0.10728 -1.7668,-0.12404 z m -46.722,110.96 c -0.58094,-0.0124 -1.2657,0.003 -1.5223,0.0342 -0.25598,0.0317 -0.75056,0.11371 -1.0985,0.18267 -0.34857,0.069 -0.93573,0.2243 -1.3048,0.34546 -0.36969,0.12053 -1.0177,0.38647 -1.4397,0.59026 -0.4225,0.20318 -1.0376,0.54677 -1.3669,0.763 -0.32993,0.21621 -0.85557,0.60765 -1.1687,0.87048 -0.31314,0.26282 -0.75678,0.68035 -0.98543,0.92764 -0.22927,0.2473 -0.60517,0.70148 -0.83506,1.009 -0.23052,0.30818 -0.56231,0.79903 -0.7369,1.0923 -0.17522,0.29265 -0.44177,0.8096 -0.59213,1.1495 -0.15036,0.33925 -0.35913,0.88416 -0.46352,1.2104 -0.10439,0.32619 -0.233,0.78039 -0.28644,1.0097 -0.0528,0.22926 -0.13856,0.73938 -0.19074,1.1339 -0.0516,0.39517 -0.0938,1.0786 -0.0938,1.5191 0,0.44052 0.0423,1.1233 0.0938,1.5173 0.0516,0.39393 0.17707,1.0382 0.27835,1.431 0.10128,0.39331 0.28208,0.96804 0.40139,1.2781 0.11992,0.30942 0.35974,0.83942 0.53372,1.1781 0.17334,0.338 0.47097,0.84749 0.66047,1.1315 0.18951,0.28395 0.49333,0.69775 0.67477,0.92019 0.18143,0.22244 0.59337,0.66482 0.91522,0.98418 0.32247,0.31875 0.85744,0.7835 1.1898,1.0327 0.33242,0.24853 0.9028,0.62195 1.2681,0.82885 0.36472,0.20691 0.97114,0.50141 1.347,0.65488 0.3759,0.15285 0.94939,0.35044 1.2737,0.43804 0.32496,0.0876 0.81395,0.20255 1.0873,0.25474 0.27339,0.0529 0.86986,0.12116 1.3247,0.15161 0.49519,0.0335 1.1488,0.0335 1.6254,0 0.43804,-0.0311 1.0985,-0.11494 1.4676,-0.18578 0.36845,-0.0714 0.9935,-0.23611 1.3887,-0.36596 0.39454,-0.12924 0.98357,-0.36037 1.3079,-0.5126 0.32496,-0.15222 0.81394,-0.41194 1.0873,-0.57659 0.27338,-0.16527 0.76299,-0.49893 1.0873,-0.74063 0.32495,-0.24232 0.86986,-0.72261 1.2116,-1.0668 0.34173,-0.3436 0.77977,-0.83321 0.97301,-1.0873 0.19385,-0.25413 0.51011,-0.71329 0.70397,-1.0208 0.19385,-0.30756 0.47407,-0.81457 0.62319,-1.1259 0.14912,-0.3119 0.37218,-0.85743 0.49644,-1.2116 0.12364,-0.35478 0.2796,-0.87173 0.34546,-1.1495 0.0665,-0.27712 0.16218,-0.79469 0.2125,-1.1495 0.0503,-0.35478 0.092,-1.0886 0.0926,-1.631 6.2e-4,-0.57162 -0.0391,-1.2638 -0.0951,-1.6465 -0.0528,-0.36347 -0.17832,-0.97735 -0.27836,-1.365 -0.10066,-0.38709 -0.28395,-0.96058 -0.40697,-1.2737 -0.12364,-0.31316 -0.37528,-0.85619 -0.5592,-1.2067 -0.18329,-0.35043 -0.47469,-0.84625 -0.64742,-1.1022 -0.17274,-0.25599 -0.51819,-0.71018 -0.76735,-1.009 -0.24977,-0.29949 -0.68409,-0.75988 -0.96492,-1.024 -0.28084,-0.26345 -0.75429,-0.6611 -1.0513,-0.88291 -0.29762,-0.22182 -0.83756,-0.57349 -1.2004,-0.78164 -0.36285,-0.20814 -0.96369,-0.50141 -1.3359,-0.65177 -0.37156,-0.15036 -0.92765,-0.34608 -1.2352,-0.43493 -0.30756,-0.0888 -0.88043,-0.21809 -1.2737,-0.28768 -0.46724,-0.082 -1.0805,-0.13358 -1.7708,-0.14849 z m 80.853,-0.0218 c -0.38584,0.004 -0.91086,0.0317 -1.1674,0.0602 -0.25599,0.0292 -0.75616,0.10996 -1.1103,0.18081 -0.35479,0.0702 -0.97798,0.23921 -1.3856,0.3759 -0.40821,0.13607 -0.99848,0.37093 -1.3128,0.52129 -0.3144,0.15036 -0.80525,0.4163 -1.0911,0.59027 -0.28519,0.17397 -0.72696,0.47345 -0.9817,0.66482 -0.25475,0.19199 -0.68968,0.56168 -0.96741,0.82202 -0.27711,0.26034 -0.70832,0.71825 -0.95809,1.0177 -0.24916,0.29886 -0.59461,0.75305 -0.76734,1.009 -0.17273,0.25598 -0.46413,0.75181 -0.64743,1.1022 -0.18391,0.35044 -0.43555,0.89348 -0.55919,1.2067 -0.12303,0.31315 -0.30632,0.88664 -0.40697,1.2737 -0.10069,0.3877 -0.22928,1.0258 -0.28644,1.4191 -0.0814,0.56106 -0.0963,0.9817 -0.0696,1.9572 0.0274,0.99847 0.0653,1.39 0.19198,1.9902 0.0864,0.41131 0.27277,1.0824 0.41381,1.4912 0.14043,0.40884 0.37715,0.99537 0.52503,1.3029 0.14788,0.30756 0.42809,0.81084 0.62133,1.1184 0.19385,0.30756 0.51011,0.76548 0.70334,1.0171 0.19261,0.25164 0.5884,0.70024 0.87981,0.99723 0.2914,0.297 0.71142,0.68968 0.93323,0.8736 0.22244,0.18329 0.69776,0.5275 1.0563,0.76423 0.35913,0.23735 0.95995,0.57971 1.3359,0.76051 0.3759,0.18142 0.98294,0.43121 1.3489,0.55485 0.36533,0.12426 0.99537,0.29389 1.3999,0.37777 0.40449,0.0833 1.1029,0.17769 1.5514,0.21001 0.49581,0.0348 1.1488,0.0354 1.6614,10e-4 0.46476,-0.0311 1.1196,-0.11184 1.4552,-0.18019 0.33552,-0.0684 0.84688,-0.19324 1.1358,-0.27711 0.28954,-0.0839 0.84563,-0.28768 1.2371,-0.45358 0.39081,-0.16589 0.98356,-0.46226 1.3166,-0.65861 0.33365,-0.19571 0.87856,-0.5623 1.2116,-0.81394 0.33304,-0.25164 0.87671,-0.73317 1.2079,-1.0699 0.33117,-0.33675 0.72945,-0.77045 0.88478,-0.9643 0.15533,-0.19324 0.43928,-0.58467 0.63065,-0.86986 0.19137,-0.28457 0.52689,-0.88105 0.7456,-1.3254 0.21808,-0.44426 0.49271,-1.1016 0.6089,-1.4601 0.11681,-0.35913 0.26904,-0.91833 0.33862,-1.2427 0.0696,-0.32496 0.15658,-0.86178 0.19262,-1.1936 0.0367,-0.33179 0.0665,-0.93883 0.0665,-1.3483 0,-0.40945 -0.0429,-1.0749 -0.0957,-1.4781 -0.0522,-0.40324 -0.16217,-0.9991 -0.24418,-1.3235 -0.082,-0.32496 -0.23798,-0.8419 -0.34608,-1.1495 -0.10874,-0.30756 -0.33367,-0.84314 -0.49956,-1.1905 -0.16652,-0.34732 -0.52378,-0.96244 -0.7953,-1.3669 -0.27152,-0.40448 -0.72757,-1.001 -1.0134,-1.3247 -0.28644,-0.32433 -0.75679,-0.79468 -1.0463,-1.0457 -0.28953,-0.25102 -0.83382,-0.66233 -1.2097,-0.91336 -0.37591,-0.25164 -0.99103,-0.61014 -1.3669,-0.79716 -0.3759,-0.18639 -1.019,-0.45295 -1.4291,-0.59088 -0.41008,-0.13856 -1.0252,-0.30756 -1.3669,-0.37591 -0.34173,-0.0677 -0.89284,-0.15285 -1.2247,-0.18888 -0.33179,-0.0361 -0.91895,-0.0621 -1.3048,-0.0578 z"
       id="icon" /></g></svg>