<?xml version="1.0" encoding="UTF-8" standalone="no"?>
<svg
   xmlns:dc="http://purl.org/dc/elements/1.1/"
   xmlns:cc="http://creativecommons.org/ns#"
   xmlns:rdf="http://www.w3.org/1999/02/22-rdf-syntax-ns#"
   xmlns:svg="http://www.w3.org/2000/svg"
   xmlns="http://www.w3.org/2000/svg"
   id="svg4"
   xml:space="preserve"
   enable-background="new 0 0 200 200"
   viewBox="0 0 200 200"
   y="0px"
   x="0px"
   version="1.1"><metadata
     id="metadata10"><rdf:RDF><cc:Work
         rdf:about=""><dc:format>image/svg+xml</dc:format><dc:type
           rdf:resource="http://purl.org/dc/dcmitype/StillImage" /></cc:Work></rdf:RDF></metadata><defs
     id="defs8" /><path
     id="path2"
     d="m123.02 40.008c-0.44844 0.01165-0.89201 0.0353-1.3301 0.06443l-0.045 0.0023-0.043 0.0058c-7.1004 0.82838-13.144 3.9945-18.568 7.2715l-0.0118 0.0093-0.0118 0.0082c-5.478 3.4238-10.369 7.4064-14.898 11.709-9.135 8.6839-17.138 18.268-24.23 28.625-3.4909 5.0677-6.7594 10.477-9.5859 16.125-0.0023 0.003-0.0035 0.008-0.0058 0.0118-2.9393 5.5406-5.5491 11.437-7.4844 17.584l-0.004 0.0136-0.004 0.0136c-0.90746 3.0627-1.7142 6.2742-2.1777 9.6348-0.45668 3.3109-0.69925 6.8401-0.10742 10.539 0.48819 3.6387 1.9295 7.5096 4.6367 10.711 2.6068 3.1033 6.1274 5.1534 9.6484 6.2461l0.0093 0.002 0.0082 0.004c3.5455 1.0636 6.9716 1.4121 10.33 1.4121 1.6417 0 3.3838-0.11464 5.0352-0.3496l0.01561-0.003c1.7544-0.23476 3.3629-0.57847 4.9199-0.91211l0.04684-0.0118 0.04882-0.0136c6.3113-1.7212 12.017-4.3513 17.553-7.4004 10.972-5.8818 20.874-13.202 30.5-20.813l0.008-0.006 0.009-0.008c4.6931-3.7992 9.395-7.718 13.998-11.871l0.009-0.008c4.5822-4.0236 9.0603-8.054 13.543-12.313l0.55468-0.52539v-0.38281c0.30317-0.63303 0.37878-1.3564 0.28907-2.0781l0.72655-0.48437-1.5371-1.5371c-1.3695-1.3695-3.6648-1.448-4.9707 0.11914l0.10742-0.11914-0.11915 0.12109-0.009 0.008c-8.3078 8.5293-17.292 16.516-26.621 24.068-4.6191 3.7393-9.4841 7.1716-14.488 10.619-4.9834 3.3221-9.9403 6.4052-15.209 9.1504-5.264 2.6314-10.698 4.7922-16.16 5.8633l-0.0035 0.002h-0.0035c-2.6526 0.53052-5.2657 0.73788-7.9863 0.52929h-0.0082c-2.6458-0.21221-5.2673-0.7464-7.4961-1.6582l-0.03123-0.0136-0.03122-0.0118c-2.1106-0.7675-3.8323-2.1074-5.0859-3.7383-1.1434-1.6315-1.9227-3.6617-2.1172-5.8984l-0.0023-0.037-0.0035-0.0352c-0.61366-4.807 0.52113-10.273 2.1621-15.637 3.6019-10.794 9.5288-21.029 16.062-30.887l0.0023-0.0023c6.633-9.735 14.037-18.904 22.421-27.177l0.0093-0.01177 0.01363-0.01363c4.051-4.1604 8.4456-8.0082 12.969-11.65l0.008-0.0058c2.3122-1.7614 4.5701-3.3692 6.9883-4.6309l0.041-0.02144 0.041-0.02342c2.3104-1.3653 4.8046-2.3903 7.1973-2.7891 2.4243-0.40405 4.8669-0.19619 6.25 0.80274l0.0274 0.01957 0.0292 0.01957c1.3538 0.90255 2.2008 2.8469 2.2109 5.0625-0.10427 2.3238-0.89378 4.8435-2.1992 7.0527l-0.0176 0.0254-0.0136 0.02738c-1.1422 2.0941-2.8955 4.0413-4.8184 5.543h-0.0468l-0.31836 0.31836-0.61328 0.45898v0.69727c-0.63303 1.2444-0.70096 2.7201 0.1914 3.791l0.0508 0.06059 0.0566 0.05662c1.2295 1.2295 3.4467 1.4293 4.875 0.20508l0.0176-0.01561 0.0196-0.01561c2.4748-2.2391 4.6066-4.8478 6.3711-7.9063l0.008-0.01177 0.004-0.0082c1.6764-2.9936 2.7723-6.3938 2.8984-10.051 0.12225-1.9047-0.12627-3.9347-0.90235-5.875-0.79114-1.9779-2.1108-3.6887-3.8027-4.9902l-0.0586-0.04497-0.0644-0.04101c-1.746-1.1224-3.6258-1.8783-5.5234-2.2578-1.4232-0.28464-2.8128-0.35073-4.1582-0.3164z"
     fill="#a22bff" /></svg>